<svg xmlns="http://www.w3.org/2000/svg" xmlns:xlink="http://www.w3.org/1999/xlink" xmlns:fi="http://pattern.flaticon.com/" x="0" y="0" width="1920" height="960" viewBox="0 0 1920 960"><rect x="0px" y="0px" width="100%" height="100%" opacity="1" fill="#e8e8ff"/><defs><g transform="matrix(0.13333334028720856 0 0 0.13333334028720856 242.5 67.5)" id="L1_0"><g><circle cx="118" cy="178" r="24" fill="#92ceff"/><path d="m118 206c-15.438 0-28-12.561-28-28s12.562-28 28-28 28 12.561 28 28-12.562 28-28 28zm0-48c-11.027 0-20 8.973-20 20s8.973 20 20 20 20-8.973 20-20-8.973-20-20-20z" fill="#2e58ff"/></g><g><path d="m145.52 165.309c2.811-3.695 4.48-8.307 4.48-13.309 0-12.15-9.85-22-22-22s-22 9.85-22 22c0 8.229 4.518 15.402 11.208 19.175" fill="#92ceff"/><path d="m117.203 175.176c-.664 0-1.34-.166-1.961-.516-8.168-4.605-13.242-13.289-13.242-22.66 0-14.336 11.664-26 26-26s26 11.664 26 26c0 5.738-1.832 11.178-5.297 15.73-1.34 1.76-3.852 2.102-5.605.762-1.758-1.338-2.098-3.848-.762-5.605 2.398-3.15 3.664-6.914 3.664-10.887 0-9.926-8.074-18-18-18s-18 8.074-18 18c0 6.488 3.516 12.502 9.172 15.691 1.926 1.086 2.605 3.525 1.52 5.449-.735 1.303-2.09 2.036-3.489 2.036z" fill="#2e58ff"/></g><g><path d="m210 270v-43.602c0-12.269-7.135-23.252-17.905-27.56l-30.095-12.038v-24.8h-24v24.8l-30.095 12.038c-10.77 4.308-17.905 15.29-17.905 27.56v43.602" fill="#cceaff"/><path d="m210 274c-2.211 0-4-1.791-4-4v-43.602c0-10.58-6.188-20.164-15.391-23.848l-30.094-12.035c-1.52-.607-2.516-2.08-2.516-3.715v-20.8h-16v20.801c0 1.635-.996 3.107-2.516 3.715l-30.094 12.037c-9.201 3.681-15.389 13.265-15.389 23.845v43.602c0 2.209-1.789 4-4 4s-4-1.791-4-4v-43.602c0-13.82 8.207-26.389 20.422-31.273l27.578-11.033v-22.092c0-2.209 1.789-4 4-4h24c2.211 0 4 1.791 4 4v22.092l27.578 11.031c12.215 4.887 20.422 17.455 20.422 31.275v43.602c0 2.209-1.789 4-4 4z" fill="#2e58ff"/></g><path d="m74 154c-1.023 0-2.047-.391-2.828-1.172l-12-12c-1.562-1.562-1.562-4.094 0-5.656s4.094-1.562 5.656 0l12 12c1.562 1.562 1.562 4.094 0 5.656-.781.781-1.805 1.172-2.828 1.172z" fill="#2e58ff"/><path d="m62 154c-1.023 0-2.047-.391-2.828-1.172-1.562-1.562-1.562-4.094 0-5.656l12-12c1.562-1.562 4.094-1.562 5.656 0s1.562 4.094 0 5.656l-12 12c-.781.781-1.805 1.172-2.828 1.172z" fill="#2e58ff"/><path d="m234 146c-6.617 0-12-5.383-12-12s5.383-12 12-12 12 5.383 12 12-5.383 12-12 12zm0-16c-2.207 0-4 1.795-4 4s1.793 4 4 4 4-1.795 4-4-1.793-4-4-4z" fill="#2e58ff"/><circle cx="226" cy="182" r="4" fill="#2e58ff"/><g><path d="m150 214c13.472 0 24.977-8.335 29.697-20.121l-17.697-7.079v-24.8h-24v24.8l-17.697 7.079c4.72 11.786 16.225 20.121 29.697 20.121z" fill="#cceaff"/><path d="m150 218c-14.789 0-27.902-8.885-33.41-22.635-.395-.984-.379-2.086.039-3.061.418-.977 1.203-1.746 2.191-2.141l15.18-6.072v-22.091c0-2.209 1.789-4 4-4h24c2.211 0 4 1.791 4 4v22.092l15.18 6.072c.988.395 1.773 1.164 2.191 2.141.418.975.434 2.076.039 3.061-5.508 13.749-18.621 22.634-33.41 22.634zm-24.234-21.998c4.949 8.615 14.086 13.998 24.234 13.998s19.285-5.383 24.234-13.998l-13.719-5.486c-1.52-.607-2.516-2.08-2.516-3.715v-20.801h-16v20.801c0 1.635-.996 3.107-2.516 3.715z" fill="#2e58ff"/></g><circle cx="58" cy="90" r="4" fill="#2e58ff"/><g><path d="m110 90v16.021c-4.434.11-8 3.721-8 8.182v1.561c0 6.479 4.355 11.885 10.277 13.609l2.5 16.873c2.354 15.888 26.334 27.754 35.223 27.754s32.869-11.866 35.223-27.754l2.5-16.873c5.923-1.724 10.277-7.13 10.277-13.609v-1.561c0-4.461-3.566-8.072-8-8.182v-16.021z" fill="#cceaff"/><path d="m150 178c-9.969 0-36.398-12.422-39.18-31.168l-2.156-14.549c-6.391-2.931-10.664-9.392-10.664-16.519v-1.561c0-5.293 3.297-9.758 8-11.455v-12.748c0-2.209 1.789-4 4-4h80c2.211 0 4 1.791 4 4v12.748c4.703 1.697 8 6.162 8 11.455v1.561c0 7.127-4.273 13.588-10.664 16.52l-2.156 14.549c-2.782 18.745-29.211 31.167-39.18 31.167zm-36-84v12.02c0 2.17-1.73 3.943-3.898 3.998-2.301.059-4.102 1.896-4.102 4.186v1.561c0 4.555 2.973 8.48 7.395 9.77 1.5.436 2.609 1.707 2.84 3.254l2.5 16.873c1.968 13.281 23.687 24.338 31.265 24.338s29.297-11.057 31.266-24.34l2.5-16.873c.23-1.547 1.34-2.818 2.84-3.254 4.422-1.289 7.395-5.215 7.395-9.77v-1.561c0-2.289-1.801-4.127-4.102-4.186-2.168-.055-3.898-1.828-3.898-3.998v-12.018zm-4 12.02h.039z" fill="#2e58ff"/></g><g fill="#2e58ff"><circle cx="170" cy="118" r="4"/><circle cx="130" cy="118" r="4"/><path d="m150 146c-4.645 0-8.875-2.152-11.312-5.76-.832-1.227-.914-2.809-.219-4.117.691-1.307 2.051-2.123 3.531-2.123h16c1.48 0 2.84.816 3.531 2.123.695 1.309.613 2.891-.219 4.117-2.437 3.608-6.667 5.76-11.312 5.76z"/><path d="m190 274c-2.211 0-4-1.791-4-4v-24c0-2.209 1.789-4 4-4s4 1.791 4 4v24c0 2.209-1.789 4-4 4z"/><path d="m110 274c-2.211 0-4-1.791-4-4v-24c0-2.209 1.789-4 4-4s4 1.791 4 4v24c0 2.209-1.789 4-4 4z"/></g><g><ellipse cx="150px" cy="82px" rx="72px" ry="20px" fill="#92ceff"/><path d="m150 106c-37.766 0-76-8.244-76-24s38.234-24 76-24 76 8.244 76 24-38.234 24-76 24zm0-40c-44 0-68 10.57-68 16s24 16 68 16 68-10.57 68-16-24-16-68-16z" fill="#2e58ff"/></g><g><path d="m197.481 82c-1.878-24.607-22.393-44-47.481-44s-45.603 19.393-47.481 44" fill="#92ceff"/><path d="m197.477 86c-2.07 0-3.824-1.596-3.984-3.695-1.727-22.602-20.829-40.305-43.493-40.305s-41.766 17.703-43.492 40.305c-.168 2.201-2.039 3.857-4.293 3.684-2.203-.168-3.852-2.09-3.684-4.293 2.043-26.745 24.649-47.696 51.469-47.696s49.426 20.951 51.469 47.695c.168 2.203-1.48 4.125-3.684 4.293-.105.008-.207.012-.308.012z" fill="#2e58ff"/></g><path d="m150 38c-2.211 0-4-1.791-4-4v-4c0-2.209 1.789-4 4-4s4 1.791 4 4v4c0 2.209-1.789 4-4 4z" fill="#2e58ff"/><path d="m178 258h-16c-2.211 0-4-1.791-4-4s1.789-4 4-4h16c2.211 0 4 1.791 4 4s-1.789 4-4 4z" fill="#2e58ff"/><g><path d="m150 214v12" fill="#cceaff"/><path d="m150 230c-2.211 0-4-1.791-4-4v-12c0-2.209 1.789-4 4-4s4 1.791 4 4v12c0 2.209-1.789 4-4 4z" fill="#2e58ff"/></g><g><circle cx="150" cy="234" r="8" fill="#92ceff"/><path d="m150 246c-6.617 0-12-5.383-12-12s5.383-12 12-12 12 5.383 12 12-5.383 12-12 12zm0-16c-2.207 0-4 1.795-4 4s1.793 4 4 4 4-1.795 4-4-1.793-4-4-4z" fill="#2e58ff"/></g></g><g transform="matrix(0.06666667014360428 0 0 0.06666667014360428 252.5 340)" id="L1_1"><g><path d="m218 270v-51.602c0-12.269-8.087-23.252-20.293-27.56l-47.707-16.838-47.707 16.838c-12.206 4.308-20.293 15.29-20.293 27.56v51.602" fill="#cceaff"/><path d="m218 274c-2.211 0-4-1.791-4-4v-51.602c0-10.508-7.082-20.068-17.625-23.789l-46.375-16.367-46.375 16.367c-10.543 3.721-17.625 13.282-17.625 23.789v51.602c0 2.209-1.789 4-4 4s-4-1.791-4-4v-51.602c0-13.893 9.227-26.484 22.961-31.332l47.707-16.838c.859-.305 1.805-.305 2.664 0l47.707 16.838c13.734 4.848 22.961 17.44 22.961 31.332v51.602c0 2.209-1.789 4-4 4z" fill="#2e58ff"/></g><g><path d="m170 226-20 16-20-16v-32h40z" fill="#92ceff"/><path d="m150 246c-.883 0-1.77-.293-2.5-.877l-20-16c-.949-.758-1.5-1.908-1.5-3.123v-32c0-2.209 1.789-4 4-4h40c2.211 0 4 1.791 4 4v32c0 1.215-.551 2.365-1.5 3.123l-20 16c-.73.584-1.617.877-2.5.877zm-16-21.922 16 12.799 16-12.799v-26.078h-32zm36 1.922h.039z" fill="#2e58ff"/></g><g fill="#2e58ff"><path d="m74 154c-1.023 0-2.047-.391-2.828-1.172l-12-12c-1.562-1.562-1.562-4.094 0-5.656s4.094-1.562 5.656 0l12 12c1.562 1.562 1.562 4.094 0 5.656-.781.781-1.805 1.172-2.828 1.172z"/><path d="m62 154c-1.023 0-2.047-.391-2.828-1.172-1.562-1.562-1.562-4.094 0-5.656l12-12c1.562-1.562 4.094-1.562 5.656 0s1.562 4.094 0 5.656l-12 12c-.781.781-1.805 1.172-2.828 1.172z"/><path d="m234 146c-6.617 0-12-5.383-12-12s5.383-12 12-12 12 5.383 12 12-5.383 12-12 12zm0-16c-2.207 0-4 1.795-4 4s1.793 4 4 4 4-1.795 4-4-1.793-4-4-4z"/><circle cx="226" cy="182" r="4"/><circle cx="58" cy="90" r="4"/></g><g><path d="m154 198h-8c-8.837 0-16-7.163-16-16v-24h40v24c0 8.837-7.163 16-16 16z" fill="#cceaff"/><path d="m154 202h-8c-11.027 0-20-8.973-20-20v-24c0-2.209 1.789-4 4-4h40c2.211 0 4 1.791 4 4v24c0 11.027-8.973 20-20 20zm-20-40v20c0 6.617 5.383 12 12 12h8c6.617 0 12-5.383 12-12v-20z" fill="#2e58ff"/></g><g><path d="m110.279 98c-6.299.257-11.07 5.917-10.17 12.27l.912 6.433c.689 4.86 4.533 8.539 9.258 9.142v17.78c0 18.985 15.381 34.375 34.355 34.375h10.732c18.974 0 34.355-15.39 34.355-34.375v-17.78c4.724-.603 8.569-4.282 9.258-9.142l.912-6.433c.879-6.201-3.646-11.741-9.72-12.242l-.171-12.028h-80z" fill="#cceaff"/><path d="m155.367 182h-10.734c-21.148 0-38.355-17.215-38.355-38.375v-14.705c-4.852-1.908-8.461-6.32-9.219-11.654l-.91-6.436c-.586-4.131.605-8.338 3.27-11.537 1.797-2.158 4.16-3.738 6.781-4.588l-.2-8.613c-.023-1.076.387-2.117 1.141-2.887.75-.771 1.781-1.205 2.859-1.205h80c2.188 0 3.969 1.756 4 3.943l.125 8.873c2.59.908 4.91 2.535 6.648 4.713 2.562 3.209 3.656 7.223 3.078 11.301l-.91 6.434c-.762 5.338-4.367 9.75-9.223 11.656v14.705c.001 21.16-17.202 38.375-38.351 38.375zm-41.273-92 .184 7.908c.051 2.18-1.656 4-3.836 4.088-1.914.078-3.645.938-4.875 2.416-1.238 1.486-1.77 3.367-1.496 5.295l.91 6.436c.426 2.994 2.812 5.354 5.805 5.736 1.996.254 3.492 1.953 3.492 3.967v17.779c0 16.748 13.617 30.375 30.355 30.375h10.734c16.734 0 30.352-13.627 30.352-30.375v-17.779c0-2.014 1.496-3.713 3.492-3.969 2.996-.381 5.383-2.74 5.809-5.736l.91-6.432c.266-1.877-.234-3.719-1.406-5.188-1.168-1.465-2.832-2.355-4.68-2.508-2.055-.17-3.641-1.869-3.672-3.93l-.113-8.083z" fill="#2e58ff"/></g><circle cx="166" cy="114" r="4" fill="#2e58ff"/><circle cx="134" cy="114" r="4" fill="#2e58ff"/><path d="m110 274c-2.211 0-4-1.791-4-4v-20c0-2.209 1.789-4 4-4s4 1.791 4 4v20c0 2.209-1.789 4-4 4z" fill="#2e58ff"/><path d="m190 274c-2.211 0-4-1.791-4-4v-20c0-2.209 1.789-4 4-4s4 1.791 4 4v20c0 2.209-1.789 4-4 4z" fill="#2e58ff"/><path d="m154 150h-8c-6.617 0-12-5.383-12-12 0-2.209 1.789-4 4-4h24c2.211 0 4 1.791 4 4 0 6.617-5.383 12-12 12zm-8-8h8z" fill="#2e58ff"/><g><ellipse cx="150px" cy="82px" rx="72px" ry="20px" fill="#92ceff"/><path d="m150 106c-37.766 0-76-8.244-76-24s38.234-24 76-24 76 8.244 76 24-38.234 24-76 24zm0-40c-44 0-68 10.57-68 16s24 16 68 16 68-10.57 68-16-24-16-68-16z" fill="#2e58ff"/></g><g><path d="m197.481 82c-1.878-24.607-22.393-44-47.481-44s-45.603 19.393-47.481 44" fill="#92ceff"/><path d="m197.477 86c-2.07 0-3.824-1.596-3.984-3.695-1.727-22.602-20.829-40.305-43.493-40.305s-41.766 17.703-43.492 40.305c-.168 2.201-2.047 3.857-4.293 3.684-2.203-.168-3.852-2.09-3.684-4.293 2.043-26.745 24.649-47.696 51.469-47.696s49.426 20.951 51.469 47.695c.168 2.203-1.48 4.125-3.684 4.293-.105.008-.207.012-.308.012z" fill="#2e58ff"/></g><path d="m150 38c-2.211 0-4-1.791-4-4v-4c0-2.209 1.789-4 4-4s4 1.791 4 4v4c0 2.209-1.789 4-4 4z" fill="#2e58ff"/><g><path d="m150 242-20.603-40.274.603-23.726s-28 12-28 28h20l-4 16z" fill="#cceaff"/><path d="m150 246c-.73 0-1.469-.199-2.121-.607l-32-20c-1.469-.92-2.18-2.682-1.758-4.363l2.754-11.03h-14.875c-2.211 0-4-1.791-4-4 0-18.115 27.309-30.342 30.426-31.676 1.25-.533 2.691-.4 3.816.365 1.129.764 1.793 2.051 1.758 3.412l-.578 22.709 20.141 39.367c.816 1.602.469 3.553-.859 4.77-.759.696-1.727 1.053-2.704 1.053zm-27.414-25.852 17.262 10.789-14.012-27.389c-.301-.596-.453-1.256-.438-1.924l.434-17.1c-7.039 3.883-16.32 10.365-19.047 17.475h15.215c1.23 0 2.395.568 3.152 1.539s1.027 2.236.727 3.432z" fill="#2e58ff"/></g><g><path d="m150 242 20.603-40.274-.603-23.726s28 12 28 28h-20l4 16z" fill="#cceaff"/><path d="m150 246c-.977 0-1.945-.357-2.703-1.053-1.328-1.217-1.676-3.168-.859-4.77l20.141-39.367-.579-22.708c-.035-1.361.629-2.648 1.758-3.412 1.129-.77 2.57-.9 3.816-.365 3.117 1.333 30.426 13.56 30.426 31.675 0 2.209-1.789 4-4 4h-14.875l2.754 11.029c.422 1.682-.289 3.443-1.758 4.363l-32 20c-.652.409-1.391.608-2.121.608zm24.168-61.484.434 17.109c.016.668-.137 1.328-.438 1.924l-14.012 27.389 17.262-10.789-3.293-13.178c-.301-1.195-.031-2.461.727-3.432s1.922-1.539 3.152-1.539h15.219c-2.723-7.127-12.008-13.607-19.051-17.484z" fill="#2e58ff"/></g><path d="m178 258h-16c-2.211 0-4-1.791-4-4s1.789-4 4-4h16c2.211 0 4 1.791 4 4s-1.789 4-4 4z" fill="#2e58ff"/></g><g transform="matrix(0.06666667014360428 0 0 0.06666667014360428 77.5 340)" id="L1_2"><path d="m244 74c-1.023 0-2.047-.391-2.828-1.172l-12-12c-1.562-1.562-1.562-4.094 0-5.656s4.094-1.562 5.656 0l12 12c1.562 1.562 1.562 4.094 0 5.656-.781.781-1.805 1.172-2.828 1.172z" fill="#2e58ff"/><path d="m232 74c-1.023 0-2.047-.391-2.828-1.172-1.562-1.562-1.562-4.094 0-5.656l12-12c1.562-1.562 4.094-1.562 5.656 0s1.562 4.094 0 5.656l-12 12c-.781.781-1.805 1.172-2.828 1.172z" fill="#2e58ff"/><circle cx="192" cy="50" r="4" fill="#2e58ff"/><g><path d="m52 66h101.229c4.403 0 8.697 1.376 12.28 3.935l69.643 49.745c5.552 3.966 8.847 10.369 8.847 17.192 0 11.668-9.459 21.127-21.127 21.127h-170.872" fill="#ffffff"/><path d="m222.871 162h-170.871c-2.211 0-4-1.791-4-4s1.789-4 4-4h170.871c9.445 0 17.129-7.684 17.129-17.127 0-5.518-2.68-10.729-7.172-13.939l-69.645-49.742c-2.921-2.088-6.363-3.192-9.953-3.192h-101.23c-2.211 0-4-1.791-4-4s1.789-4 4-4h101.23c5.27 0 10.32 1.619 14.602 4.682l69.645 49.742c6.59 4.709 10.523 12.354 10.523 20.449 0 13.856-11.273 25.127-25.129 25.127z" fill="#2e58ff"/></g><g><path d="m176.8 78h-40.8v15.24c0 13.674 11.085 24.76 24.76 24.76h72.04z" fill="#cceaff"/><path d="m232.801 122h-72.043c-15.856 0-28.758-12.902-28.758-28.76v-15.24c0-2.209 1.789-4 4-4h40.801c.832 0 1.648.26 2.324.744l56 40c1.414 1.012 2.016 2.82 1.484 4.477s-2.07 2.779-3.808 2.779zm-92.801-40v11.24c0 11.447 9.312 20.76 20.758 20.76h59.562l-44.8-32z" fill="#2e58ff"/></g><path d="m156 98c-1.023 0-2.047-.391-2.828-1.172-1.562-1.562-1.562-4.094 0-5.656l4-4c1.562-1.562 4.094-1.562 5.656 0s1.562 4.094 0 5.656l-4 4c-.781.781-1.805 1.172-2.828 1.172z" fill="#2e58ff"/><path d="m40 214h212v40h-212z" fill="#92ceff"/><path d="m160 110c-1.023 0-2.047-.391-2.828-1.172-1.562-1.562-1.562-4.094 0-5.656l12-12c1.562-1.562 4.094-1.562 5.656 0s1.562 4.094 0 5.656l-12 12c-.781.781-1.805 1.172-2.828 1.172z" fill="#2e58ff"/><path d="m172 194c-2.211 0-4-1.791-4-4v-32c0-2.209 1.789-4 4-4s4 1.791 4 4v32c0 2.209-1.789 4-4 4z" fill="#2e58ff"/><g><circle cx="172" cy="202" r="12" fill="#92ceff"/><path d="m172 218c-8.824 0-16-7.178-16-16s7.176-16 16-16 16 7.178 16 16-7.176 16-16 16zm0-24c-4.41 0-8 3.588-8 8s3.59 8 8 8 8-3.588 8-8-3.59-8-8-8z" fill="#2e58ff"/></g><g fill="#2e58ff"><path d="m252 218h-212c-2.211 0-4-1.791-4-4s1.789-4 4-4h212c2.211 0 4 1.791 4 4s-1.789 4-4 4z"/><circle cx="88" cy="186" r="4"/><circle cx="260" cy="166" r="4"/><path d="m172 146c-2.211 0-4-1.791-4-4v-8c0-2.209 1.789-4 4-4h36c2.211 0 4 1.791 4 4s-1.789 4-4 4h-32v4c0 2.209-1.789 4-4 4z"/><path d="m188 146c-2.211 0-4-1.791-4-4v-8c0-2.209 1.789-4 4-4s4 1.791 4 4v8c0 2.209-1.789 4-4 4z"/><path d="m200 146c-2.211 0-4-1.791-4-4v-8c0-2.209 1.789-4 4-4s4 1.791 4 4v8c0 2.209-1.789 4-4 4z"/></g><g><path d="m116 158h-28v-49.389c0-3.651 2.96-6.611 6.611-6.611h14.777c3.651 0 6.611 2.96 6.611 6.611v49.389z" fill="#cceaff"/><path d="m116 162h-28c-2.211 0-4-1.791-4-4v-49.389c0-5.851 4.758-10.611 10.609-10.611h14.781c5.852 0 10.609 4.76 10.609 10.611v49.389c.001 2.209-1.788 4-3.999 4zm-24-8h20v-45.389c0-1.439-1.172-2.611-2.609-2.611h-14.782c-1.438 0-2.609 1.172-2.609 2.611z" fill="#2e58ff"/></g><g><path d="m66 122h-8c-5.523 0-10-4.477-10-10 0-5.523 4.477-10 10-10h8c5.523 0 10 4.477 10 10 0 5.523-4.477 10-10 10z" fill="#cceaff"/><path d="m66 126h-8c-7.719 0-14-6.281-14-14s6.281-14 14-14h8c7.719 0 14 6.281 14 14s-6.281 14-14 14zm-8-20c-3.309 0-6 2.691-6 6s2.691 6 6 6h8c3.309 0 6-2.691 6-6s-2.691-6-6-6z" fill="#2e58ff"/></g></g><g transform="matrix(0.13333334028720856 0 0 0.13333334028720856 67.5 67.5)" id="L1_3"><g fill="#2e58ff"><path d="m228 83.092c-1.023 0-2.047-.391-2.828-1.172l-12-12c-1.562-1.562-1.562-4.094 0-5.656s4.094-1.562 5.656 0l12 12c1.562 1.562 1.562 4.094 0 5.656-.781.781-1.805 1.172-2.828 1.172z"/><path d="m216 83.092c-1.023 0-2.047-.391-2.828-1.172-1.562-1.562-1.562-4.094 0-5.656l12-12c1.562-1.562 4.094-1.562 5.656 0s1.562 4.094 0 5.656l-12 12c-.781.781-1.805 1.172-2.828 1.172z"/><path d="m96 67.092c-6.617 0-12-5.383-12-12s5.383-12 12-12 12 5.383 12 12-5.383 12-12 12zm0-16c-2.205 0-4 1.795-4 4s1.795 4 4 4 4-1.795 4-4-1.795-4-4-4z"/><circle cx="164" cy="45" r="4"/></g><g><path d="m157.384 103.092h-37.384l-36-12-36 12v152l36-12 36 12h132v-152h-78.076" fill="#92ceff"/><path d="m48 259.092c-.828 0-1.648-.258-2.338-.756-1.045-.752-1.662-1.959-1.662-3.244v-152c0-1.723 1.102-3.25 2.734-3.795l36-12c.824-.273 1.707-.273 2.531 0l35.383 11.795h36.734c2.209 0 4 1.791 4 4s-1.791 4-4 4h-37.382c-.43 0-.857-.068-1.266-.205l-34.734-11.578-32 10.666v143.568l30.734-10.246c.824-.273 1.707-.273 2.531 0l35.383 11.795h127.352v-144h-74.076c-2.209 0-4-1.791-4-4s1.791-4 4-4h78.076c2.209 0 4 1.791 4 4v152c0 2.209-1.791 4-4 4h-132c-.43 0-.857-.068-1.266-.205l-34.734-11.578-34.734 11.578c-.414.136-.84.205-1.266.205z" fill="#2e58ff"/></g><g><path d="m252 131.092-24-4-28 4-28 12-20 24-8 16-24 16-36-6.598-28 14.598-8-2.667v23.111l16 3.556 20-12.217 36 10.686 20-18.469 12-4 12 24s-3.858 12.862-6.469 24h27.669l2.8-28-8-20-12.449-17.428 8.449-6.572 8-20 24-8h36l8 3.556z" fill="#cceaff"/><path d="m185.199 259.092h-27.668c-1.221 0-2.375-.559-3.135-1.516-.758-.957-1.039-2.209-.76-3.398 2.082-8.881 4.977-18.941 6.08-22.707l-9.742-19.486-7.893 2.631-19.368 17.884c-1.035.957-2.504 1.293-3.852.895l-34.295-10.18-18.48 11.291c-.883.541-1.939.715-2.953.49l-16-3.555c-1.83-.406-3.133-2.029-3.133-3.904v-23.111c0-1.285.617-2.492 1.66-3.244 1.045-.754 2.389-.957 3.604-.551l6.391 2.129 26.496-13.812c.791-.412 1.699-.547 2.57-.387l34.408 6.305 21.768-14.512 7.525-15.051c.139-.275.309-.535.506-.771l20-24c.404-.484.916-.867 1.496-1.115l28-12c.324-.139.662-.234 1.01-.283l28-4c.404-.061.818-.055 1.225.014l24 4c1.928.32 3.342 1.99 3.342 3.945v27.555c0 1.354-.686 2.615-1.82 3.354-1.133.74-2.566.854-3.805.303l-7.225-3.211h-34.502l-21.623 7.209-7.311 18.277c-.264.658-.699 1.234-1.26 1.672l-5.418 4.213 10.217 14.305c.188.26.342.541.461.838l8 20c.238.598.33 1.244.266 1.885l-2.801 28c-.205 2.042-1.926 3.599-3.981 3.599zm-22.572-8h18.953l2.342-23.424-7.457-18.643-12.168-17.037c-1.248-1.746-.896-4.164.799-5.482l7.594-5.906 7.596-18.994c.438-1.092 1.334-1.936 2.449-2.309l24-8c.408-.137.836-.205 1.266-.205h36c.559 0 1.113.117 1.625.344l2.375 1.057v-18.013l-20.047-3.342-26.863 3.838-26.631 11.414-19.088 22.904-7.793 15.586c-.312.623-.779 1.152-1.359 1.539l-24 16c-.865.576-1.922.801-2.939.605l-34.648-6.35-26.783 13.965c-.959.504-2.088.59-3.113.248l-2.737-.912v14.354l11.293 2.51 18.621-11.377c.965-.59 2.137-.742 3.225-.42l33.818 10.037 18.33-16.926c.416-.385.91-.676 1.447-.855l12-4c1.893-.621 3.955.227 4.844 2.006l12 24c.455.912.547 1.963.254 2.938-.033.108-2.807 9.377-5.205 18.85z" fill="#2e58ff"/></g><path d="m116 103.092h8v152h-8z" fill="#2e58ff"/><path d="m80 91.092h8v152h-8z" fill="#2e58ff"/><path d="m228 207.092c-2.209 0-4-1.791-4-4v-12c0-2.209 1.791-4 4-4s4 1.791 4 4v12c0 2.209-1.791 4-4 4z" fill="#2e58ff"/><g><path d="m232.245 191.092h-8.491c-4.283 0-7.755-3.472-7.755-7.755v-8.491c0-4.283 3.472-7.755 7.755-7.755h8.491c4.283 0 7.755 3.472 7.755 7.755v8.491c0 4.283-3.472 7.755-7.755 7.755z" fill="#cceaff"/><path d="m232.246 195.092h-8.492c-6.48 0-11.754-5.273-11.754-11.754v-8.492c0-6.48 5.273-11.754 11.754-11.754h8.492c6.48 0 11.754 5.273 11.754 11.754v8.492c0 6.48-5.273 11.754-11.754 11.754zm-8.492-24c-2.07 0-3.754 1.684-3.754 3.754v8.492c0 2.07 1.684 3.754 3.754 3.754h8.492c2.07 0 3.754-1.684 3.754-3.754v-8.492c0-2.07-1.684-3.754-3.754-3.754z" fill="#2e58ff"/></g><path d="m144 159.092c-2.209 0-4-1.791-4-4v-12c0-2.209 1.791-4 4-4s4 1.791 4 4v12c0 2.209-1.791 4-4 4z" fill="#2e58ff"/><g><path d="m148.245 143.092h-8.491c-4.283 0-7.755-3.472-7.755-7.755v-8.491c0-4.283 3.472-7.755 7.755-7.755h8.491c4.283 0 7.755 3.472 7.755 7.755v8.491c0 4.283-3.472 7.755-7.755 7.755z" fill="#cceaff"/><path d="m148.246 147.092h-8.492c-6.48 0-11.754-5.273-11.754-11.754v-8.492c0-6.48 5.273-11.754 11.754-11.754h8.492c6.48 0 11.754 5.273 11.754 11.754v8.492c0 6.48-5.273 11.754-11.754 11.754zm-8.492-24c-2.07 0-3.754 1.684-3.754 3.754v8.492c0 2.07 1.684 3.754 3.754 3.754h8.492c2.07 0 3.754-1.684 3.754-3.754v-8.492c0-2.07-1.684-3.754-3.754-3.754z" fill="#2e58ff"/></g><path d="m204 235.092c-2.209 0-4-1.791-4-4v-12c0-2.209 1.791-4 4-4s4 1.791 4 4v12c0 2.209-1.791 4-4 4z" fill="#2e58ff"/><g><path d="m208.245 219.092h-8.491c-4.283 0-7.755-3.472-7.755-7.755v-8.491c0-4.283 3.472-7.755 7.755-7.755h8.491c4.283 0 7.755 3.472 7.755 7.755v8.491c0 4.283-3.472 7.755-7.755 7.755z" fill="#cceaff"/><path d="m208.246 223.092h-8.492c-6.48 0-11.754-5.273-11.754-11.754v-8.492c0-6.48 5.273-11.754 11.754-11.754h8.492c6.48 0 11.754 5.273 11.754 11.754v8.492c0 6.48-5.273 11.754-11.754 11.754zm-8.492-24c-2.07 0-3.754 1.684-3.754 3.754v8.492c0 2.07 1.684 3.754 3.754 3.754h8.492c2.07 0 3.754-1.684 3.754-3.754v-8.492c0-2.07-1.684-3.754-3.754-3.754z" fill="#2e58ff"/></g></g><g transform="matrix(0.2253826937603437 -0.06039111078103512 0.06039111078103512 0.2253826937603437 132.13103825443238 150.2293108429688)" id="L1_4"><g fill="#2e58ff"><path d="m71.663 228c-1.023 0-2.047-.391-2.828-1.172l-12-12c-1.562-1.562-1.562-4.094 0-5.656s4.094-1.562 5.656 0l12 12c1.562 1.562 1.562 4.094 0 5.656-.781.781-1.804 1.172-2.828 1.172z"/><path d="m59.663 228c-1.023 0-2.047-.391-2.828-1.172-1.562-1.562-1.562-4.094 0-5.656l12-12c1.562-1.562 4.094-1.562 5.656 0s1.562 4.094 0 5.656l-12 12c-.781.781-1.804 1.172-2.828 1.172z"/><circle cx="240" cy="182" r="4"/></g><g><path d="m208.307 164h-125.287c-8.481 0-15.356-6.875-15.356-15.356v-81.288c-.001-8.481 6.875-15.356 15.356-15.356h125.287c8.481 0 15.356 6.875 15.356 15.356v81.287c0 8.482-6.875 15.357-15.356 15.357z" fill="#cceaff"/><path d="m208.308 168h-125.289c-10.672 0-19.355-8.684-19.355-19.355v-81.29c-.001-10.671 8.683-19.355 19.355-19.355h125.289c10.672 0 19.355 8.684 19.355 19.355v81.289c0 10.672-8.683 19.356-19.355 19.356zm-125.289-112c-6.262 0-11.355 5.094-11.355 11.355v81.289c0 6.262 5.094 11.355 11.355 11.355h125.289c6.262 0 11.355-5.094 11.355-11.355v-81.289c0-6.262-5.094-11.355-11.355-11.355z" fill="#2e58ff"/></g><g><path d="m87.663 68h28v20h-28z" fill="#ffffff"/><path d="m115.663 92h-28c-2.209 0-4-1.791-4-4v-20c0-2.209 1.791-4 4-4h28c2.209 0 4 1.791 4 4v20c0 2.209-1.791 4-4 4zm-24-8h20v-12h-20z" fill="#2e58ff"/></g><path d="m95.663 68h8v20h-8z" fill="#2e58ff"/><g><path d="m143.663 48h84v76h-84z" fill="#92ceff"/><path d="m227.663 128h-84c-2.209 0-4-1.791-4-4v-76c0-2.209 1.791-4 4-4h84c2.209 0 4 1.791 4 4v76c0 2.209-1.791 4-4 4zm-80-8h76v-68h-76z" fill="#2e58ff"/></g><g><circle cx="185" cy="84" r="22" fill="#cceaff"/><path d="m185.663 110c-14.336 0-26-11.664-26-26s11.664-26 26-26 26 11.664 26 26-11.664 26-26 26zm0-44c-9.926 0-18 8.074-18 18s8.074 18 18 18 18-8.074 18-18-8.074-18-18-18z" fill="#2e58ff"/></g><path d="m197.663 88c-2.209 0-4-1.791-4-4 0-4.412-3.588-8-8-8-2.209 0-4-1.791-4-4s1.791-4 4-4c8.822 0 16 7.178 16 16 0 2.209-1.791 4-4 4z" fill="#2e58ff"/><path d="m199.663 140h-32c-2.209 0-4-1.791-4-4s1.791-4 4-4h32c2.209 0 4 1.791 4 4s-1.791 4-4 4z" fill="#2e58ff"/><g><path d="m187.635 180h-83.943c-4.434 0-8.028-3.594-8.028-8.028v-7.972h100v7.972c-.001 4.434-3.595 8.028-8.029 8.028z" fill="#cceaff"/><path d="m187.636 184h-83.945c-6.633 0-12.027-5.395-12.027-12.027v-7.973c0-2.209 1.791-4 4-4h100c2.209 0 4 1.791 4 4v7.973c-.001 6.632-5.395 12.027-12.028 12.027zm-87.973-16v3.973c0 2.221 1.807 4.027 4.027 4.027h83.945c2.221 0 4.027-1.807 4.027-4.027v-3.973z" fill="#2e58ff"/></g><g><path d="m159.663 260v-80h-28v80" fill="#ffffff"/><path d="m159.663 264c-2.209 0-4-1.791-4-4v-76h-20v76c0 2.209-1.791 4-4 4s-4-1.791-4-4v-80c0-2.209 1.791-4 4-4h28c2.209 0 4 1.791 4 4v80c0 2.209-1.791 4-4 4z" fill="#2e58ff"/></g><g><path d="m87.663 40h40v12h-40z" fill="#92ceff"/><path d="m127.663 56h-40c-2.209 0-4-1.791-4-4v-12c0-2.209 1.791-4 4-4h40c2.209 0 4 1.791 4 4v12c0 2.209-1.791 4-4 4zm-36-8h32v-4h-32z" fill="#2e58ff"/></g></g><g transform="matrix(0.13333334028720856 0 0 0.13333334028720856 155 330)" id="L1_5"><path d="m220 60c-6.617 0-12-5.383-12-12s5.383-12 12-12 12 5.383 12 12-5.383 12-12 12zm0-16c-2.207 0-4 1.795-4 4s1.793 4 4 4 4-1.795 4-4-1.793-4-4-4z" fill="#2e58ff"/><path d="m130.203 216.219c-1.023 0-2.047-.391-2.828-1.172l-12-12c-1.562-1.562-1.562-4.094 0-5.656s4.094-1.562 5.656 0l12 12c1.562 1.562 1.562 4.094 0 5.656-.781.781-1.805 1.172-2.828 1.172z" fill="#2e58ff"/><path d="m118.203 216.219c-1.023 0-2.047-.391-2.828-1.172-1.562-1.562-1.562-4.094 0-5.656l12-12c1.562-1.562 4.094-1.562 5.656 0s1.562 4.094 0 5.656l-12 12c-.781.781-1.805 1.172-2.828 1.172z" fill="#2e58ff"/><path d="m228 264h-176c-2.211 0-4-1.791-4-4s1.789-4 4-4h176c2.211 0 4 1.791 4 4s-1.789 4-4 4z" fill="#2e58ff"/><g><path d="m113.477 176h-29.477v-100h164l-16 48 16 52h-119.288" fill="#cceaff"/><path d="m248 180h-119.289c-2.211 0-4-1.791-4-4s1.789-4 4-4h113.875l-14.41-46.824c-.242-.797-.234-1.65.031-2.441l14.242-42.735h-154.449v92h25.477c2.211 0 4 1.791 4 4s-1.789 4-4 4h-29.477c-2.211 0-4-1.791-4-4v-100c0-2.209 1.789-4 4-4h164c1.285 0 2.492.617 3.246 1.662.75 1.043.957 2.383.547 3.604l-15.594 46.783 15.625 50.775c.371 1.213.148 2.531-.605 3.553s-1.95 1.623-3.219 1.623z" fill="#2e58ff"/></g><g fill="#2e58ff"><path d="m144 120c-1.039 0-2.062-.406-2.828-1.172l-5.172-5.172-5.172 5.172c-1.148 1.148-2.863 1.486-4.359.867s-2.469-2.078-2.469-3.695v-24c0-2.209 1.789-4 4-4s4 1.791 4 4v14.344l1.172-1.172c1.562-1.562 4.094-1.562 5.656 0l1.172 1.172v-14.344c0-2.209 1.789-4 4-4s4 1.791 4 4v24c0 1.617-.973 3.076-2.469 3.695-.496.205-1.015.305-1.531.305z"/><path d="m196 120h-12c-2.211 0-4-1.791-4-4s1.789-4 4-4h8v-4h-8c-2.211 0-4-1.791-4-4v-12c0-2.209 1.789-4 4-4h12c2.211 0 4 1.791 4 4s-1.789 4-4 4h-8v4h8c2.211 0 4 1.791 4 4v12c0 2.209-1.789 4-4 4z"/><path d="m171.996 120c-1.922 0-3.617-1.387-3.941-3.342l-3.442-20.658h-1.227l-3.441 20.658c-.359 2.178-2.434 3.652-4.602 3.287-2.18-.363-3.652-2.424-3.289-4.604l4-24c.321-1.927 1.989-3.341 3.946-3.341h8c1.957 0 3.625 1.414 3.945 3.342l4 24c.363 2.18-1.109 4.24-3.289 4.604-.223.036-.441.054-.66.054z"/><path d="m157.394 104h12.145v8h-12.145z"/><path d="m144 160h-12c-2.211 0-4-1.791-4-4v-24c0-2.209 1.789-4 4-4h12c2.211 0 4 1.791 4 4s-1.789 4-4 4h-8v16h8c2.211 0 4 1.791 4 4s-1.789 4-4 4z"/><path d="m144 148h-12c-2.211 0-4-1.791-4-4s1.789-4 4-4h12c2.211 0 4 1.791 4 4s-1.789 4-4 4z"/><path d="m120 148h-12c-2.211 0-4-1.791-4-4s1.789-4 4-4h12c2.211 0 4 1.791 4 4s-1.789 4-4 4z"/><path d="m196 160h-12c-2.211 0-4-1.791-4-4v-24c0-2.209 1.789-4 4-4h12c2.211 0 4 1.791 4 4s-1.789 4-4 4h-8v16h8c2.211 0 4 1.791 4 4s-1.789 4-4 4z"/><path d="m196 148h-12c-2.211 0-4-1.791-4-4s1.789-4 4-4h12c2.211 0 4 1.791 4 4s-1.789 4-4 4z"/><path d="m172 160c-1.023 0-2.047-.391-2.828-1.172l-9.172-9.172v6.344c0 2.209-1.789 4-4 4s-4-1.791-4-4v-24c0-2.209 1.789-4 4-4h10.574c5.199 0 9.426 4.227 9.426 9.424v1.152c0 4.262-2.844 7.871-6.734 9.033l5.562 5.562c1.562 1.562 1.562 4.094 0 5.656-.781.782-1.805 1.173-2.828 1.173zm-12-20h6.574c.785 0 1.426-.639 1.426-1.424v-1.152c0-.785-.641-1.424-1.426-1.424h-6.574z"/><path d="m120 160c-2.211 0-4-1.791-4-4v-24c0-2.209 1.789-4 4-4s4 1.791 4 4v24c0 2.209-1.789 4-4 4z"/><path d="m104 160c-2.211 0-4-1.791-4-4v-24c0-2.209 1.789-4 4-4s4 1.791 4 4v24c0 2.209-1.789 4-4 4z"/><path d="m104 120c-2.211 0-4-1.791-4-4v-24c0-2.209 1.789-4 4-4s4 1.791 4 4v24c0 2.209-1.789 4-4 4z"/></g><g><path d="m72 56h12v204h-12z" fill="#92ceff"/><path d="m84 264h-12c-2.211 0-4-1.791-4-4v-204c0-2.209 1.789-4 4-4h12c2.211 0 4 1.791 4 4v204c0 2.209-1.789 4-4 4zm-8-8h4v-196h-4z" fill="#2e58ff"/></g><path d="m212 148c-2.211 0-4-1.791-4-4v-52c0-2.209 1.789-4 4-4s4 1.791 4 4v52c0 2.209-1.789 4-4 4z" fill="#2e58ff"/><circle cx="212" cy="156" r="4" fill="#2e58ff"/><circle cx="160" cy="202" r="4" fill="#2e58ff"/></g><g transform="matrix(0.23333333432674408 0 0 0.23333333432674408 315 140)" id="L1_6"><g><path d="m238.025 119.084c-12.112-41.596-50.519-71.992-96.025-71.992-55.228 0-100 44.772-100 100s44.772 100 100 100 100-44.772 100-100c0-1.957-.056-3.902-.167-5.831" fill="#ffffff"/><path d="m142 251.092c-57.346 0-104-46.654-104-104s46.654-104 104-104c45.961 0 87.027 30.789 99.865 74.873.619 2.121-.6 4.342-2.721 4.959-2.123.619-4.342-.6-4.959-2.721-11.849-40.691-49.757-69.111-92.185-69.111-52.934 0-96 43.066-96 96s43.066 96 96 96 96-43.066 96-96c0-1.879-.055-3.748-.162-5.602-.127-2.205 1.559-4.096 3.764-4.225 2.182-.1 4.098 1.559 4.225 3.764.115 2.006.174 4.027.174 6.062-.001 57.347-46.655 104.001-104.001 104.001z" fill="#2e58ff"/></g><circle cx="142" cy="147" r="72" fill="#ffffff"/><g><path d="m209.328 135.867c-1.338-3.964-4.245-6.927-7.783-8.517 4.573-3.687 6.639-9.928 4.651-15.819-1.607-4.764-5.46-8.126-9.98-9.329 2.867-3.696 3.896-8.704 2.289-13.468-2.016-5.977-7.571-9.703-13.541-9.762-.076-.28-.098-.562-.192-.84-2.549-7.554-10.739-11.613-18.293-9.064-1.639.553-3.076 1.412-4.355 2.432-.08-.298-.104-.598-.205-.894-2.548-7.554-10.739-11.613-18.293-9.064-1.781.601-3.368 1.516-4.72 2.661l1.143 1.676c-.57.405-1.083.875-1.526 1.399-.069-.384-.135-.769-.263-1.15-1.412-4.186-5.951-6.435-10.137-5.023s-6.435 5.951-5.023 10.137c.483 1.433 1.352 2.617 2.429 3.527-.384.069-.769.135-1.15.263-4.187 1.412-6.435 5.951-5.023 10.138 1.412 4.186 5.951 6.435 10.137 5.023 1.572-.531 2.871-1.502 3.805-2.73 2.031 2.607 5.535 3.801 8.844 2.685 1.573-.531 2.871-1.502 3.805-2.73 1.575 2.021 4.037 3.156 6.606 3.06-1.599 2.49-2.553 5.436-2.553 8.615 0 4.41 1.786 8.401 4.671 11.295-2.892 3.444-4.671 7.844-4.671 12.705 0 9.809 7.073 17.932 16.39 19.636-2.814 3.118-3.95 7.589-2.512 11.852 2.118 6.28 8.927 9.653 15.206 7.535 1.497-.505 2.815-1.291 3.947-2.259 2.94 4.394 8.521 6.495 13.771 4.724 5.552-1.873 8.816-7.412 8.037-13.011 4.465-3.704 6.454-9.878 4.489-15.703z" fill="#92ceff"/><path d="m193.027 169.199c-3.926 0-7.758-1.457-10.707-4.105-.633.314-1.287.584-1.957.811-8.357 2.824-17.455-1.688-20.275-10.047-1.203-3.562-1.07-7.391.26-10.82-8.561-3.751-14.348-12.268-14.348-21.946 0-4.422 1.266-8.768 3.613-12.529-2.348-3.338-3.613-7.309-3.613-11.471 0-1.996.305-3.973.895-5.869-.311-.154-.613-.32-.91-.502-.797.502-1.656.912-2.564 1.217-3.422 1.154-7.117.666-10.096-1.164-.793.498-1.648.904-2.551 1.209-3.041 1.029-6.293.807-9.166-.617-2.871-1.422-5.018-3.879-6.043-6.918-1.023-3.035-.805-6.289.619-9.162.811-1.639 1.959-3.039 3.359-4.133-.084-.209-.162-.42-.234-.635-1.023-3.033-.805-6.287.619-9.16 1.422-2.871 3.879-5.018 6.918-6.043 3.033-1.023 6.289-.807 9.162.619.902.447 1.734.998 2.482 1.635 1.203-.748 2.492-1.355 3.857-1.816 8.338-2.822 17.328.707 21.695 7.965.381-.16.768-.307 1.156-.439 9.084-3.059 18.906 1.375 22.73 9.955 6.609 1.123 12.188 5.768 14.365 12.223 1.434 4.244 1.258 8.785-.393 12.828 3.762 2.221 6.652 5.727 8.086 9.969 1.867 5.543.92 11.588-2.301 16.287 2.488 2.121 4.357 4.869 5.43 8.049h.002c2.223 6.59.582 13.678-4.164 18.609.012 6.781-4.303 12.957-10.873 15.174-1.658.557-3.365.826-5.053.826zm-9.996-13.344c.182 0 .363.012.545.037 1.133.156 2.145.789 2.779 1.738 2.01 3.002 5.777 4.303 9.168 3.158 3.631-1.225 5.883-4.871 5.355-8.67-.191-1.371.342-2.744 1.408-3.629 3.359-2.787 4.635-7.24 3.25-11.344-.926-2.75-2.928-4.934-5.633-6.148-1.268-.57-2.148-1.758-2.326-3.139-.178-1.379.375-2.752 1.457-3.625 3.398-2.736 4.752-7.328 3.371-11.426-1.117-3.314-3.816-5.836-7.221-6.742-1.295-.346-2.33-1.316-2.76-2.588-.428-1.27-.191-2.67.631-3.729 2.158-2.781 2.777-6.422 1.66-9.736-1.408-4.168-5.342-6.998-9.793-7.043-1.789-.018-3.348-1.223-3.818-2.947-.027-.1-.129-.561-.148-.662-1.816-5.404-7.746-8.355-13.199-6.502-1.078.363-2.104.939-3.135 1.764-1.051.846-2.459 1.1-3.746.678-1.283-.422-2.266-1.461-2.615-2.766-.025-.094-.129-.568-.148-.666-1.822-5.436-7.75-8.381-13.209-6.537-.293.098-.58.209-.861.332.07 1.326-.521 2.656-1.682 3.479-.291.207-.555.447-.781.717-.998 1.184-2.582 1.689-4.086 1.285-1.496-.398-2.627-1.623-2.906-3.146-.047-.262-.064-.426-.117-.588-.342-1.016-1.059-1.834-2.016-2.309-.961-.475-2.043-.551-3.053-.205-1.014.34-1.832 1.057-2.307 2.014s-.547 2.041-.205 3.053c.225.67.635 1.258 1.219 1.752 1.186 1.002 1.684 2.596 1.281 4.094-.402 1.496-1.635 2.627-3.16 2.898-.217.039-.395.057-.568.115-1.018.342-1.836 1.059-2.311 2.016s-.547 2.041-.205 3.053c.34 1.014 1.057 1.832 2.014 2.307.955.471 2.037.547 3.053.205.762-.256 1.418-.727 1.898-1.359.752-.988 1.92-1.572 3.16-1.58h.025c1.232 0 2.396.568 3.154 1.541 1.051 1.344 2.818 1.891 4.412 1.354.76-.256 1.418-.729 1.902-1.363.752-.986 1.918-1.57 3.16-1.576h.021c1.232 0 2.398.568 3.156 1.543.779.998 2.041 1.592 3.297 1.518 1.518-.031 2.887.721 3.625 2.014.74 1.295.697 2.893-.107 4.146-1.254 1.953-1.918 4.186-1.918 6.453 0 3.197 1.244 6.205 3.504 8.471 1.465 1.467 1.564 3.811.23 5.396-2.443 2.908-3.734 6.412-3.734 10.133 0 7.709 5.514 14.313 13.111 15.701 1.426.262 2.6 1.275 3.066 2.648s.154 2.891-.818 3.967c-1.955 2.166-2.604 5.189-1.691 7.893.684 2.025 2.113 3.662 4.029 4.611 1.916.951 4.086 1.094 6.109.412.941-.318 1.826-.826 2.625-1.51.731-.625 1.655-.961 2.602-.961z" fill="#2e58ff"/></g><g><path d="m252.374 263.092h-60.749c-3.107 0-5.626-2.519-5.626-5.626v-116.749c0-3.107 2.519-5.626 5.626-5.626h60.749c3.107 0 5.626 2.519 5.626 5.626v116.749c0 3.107-2.519 5.626-5.626 5.626z" fill="#cceaff"/><path d="m252.375 267.092h-60.75c-5.307 0-9.625-4.318-9.625-9.625v-116.75c0-5.307 4.318-9.625 9.625-9.625h60.75c5.307 0 9.625 4.318 9.625 9.625v116.75c0 5.306-4.318 9.625-9.625 9.625zm-60.75-128c-.896 0-1.625.729-1.625 1.625v116.75c0 .896.729 1.625 1.625 1.625h60.75c.896 0 1.625-.729 1.625-1.625v-116.75c0-.896-.729-1.625-1.625-1.625z" fill="#2e58ff"/></g><g><circle cx="222" cy="243" r="8" fill="#92ceff"/><path d="m222 255.092c-6.617 0-12-5.383-12-12s5.383-12 12-12 12 5.383 12 12-5.383 12-12 12zm0-16c-2.205 0-4 1.795-4 4s1.795 4 4 4 4-1.795 4-4-1.795-4-4-4z" fill="#2e58ff"/></g><circle cx="242" cy="243" r="4" fill="#2e58ff"/><circle cx="202" cy="243" r="4" fill="#2e58ff"/><g><path d="m146.451 76.17c-15.669 4.085-43.22 19.545-53.808 38.331-11.882 2.229-26.209 13.44-26.209 13.44l18.062 5.671c-4.189 15.268-3.768 30.501-2.656 40.717-3.765-.64-8.565-.527-13.75 1.904-11.853 5.556-21.174 21.118-21.174 21.118s9.897 6.554 21.751.998c5.907-2.768 11.169-8.014 14.978-12.589.013.061.024.106.036.161-2.367 5.439-4.669 12.441-4.501 18.92.341 13.087 10.633 19 10.633 19s9.739-15.303 9.398-28.39c-.136-5.22-1.852-9.289-3.865-12.302 8.292-3.045 19.851-8.259 30.544-16.499l11.521 15.054s5.267-12.862 3.113-29.489c15.082-17.699 17.721-50.475 14.52-69.062l-10.502 5.289z" fill="#92ceff"/><path d="m89.809 227.84c-.676 0-1.361-.172-1.988-.531-.5-.287-12.246-7.207-12.641-22.365-.051-1.912.084-3.924.398-6.031-1.742 1.225-3.482 2.246-5.215 3.059-13.732 6.432-25.18-.969-25.658-1.285-1.783-1.182-2.322-3.557-1.223-5.393.406-.678 10.098-16.676 22.91-22.682 3.568-1.674 7.266-2.547 11.039-2.615-.67-9.273-.564-21.342 2.266-33.699l-14.461-4.539c-1.418-.445-2.473-1.639-2.738-3.102-.266-1.461.301-2.949 1.471-3.865.588-.459 13.883-10.783 26.113-13.824 12.076-19.672 39.883-34.635 55.359-38.668 1.314-.33 2.695-.002 3.693.904.998.904 1.477 2.25 1.27 3.582l-.715 4.584 3.555-1.789c1.133-.57 2.467-.57 3.6 0 1.131.57 1.926 1.645 2.141 2.893 2.938 17.053 1.545 50.934-14.293 70.965 1.707 16.623-3.355 29.234-3.58 29.781-.543 1.326-1.754 2.26-3.174 2.449-1.42.195-2.834-.396-3.703-1.533l-9.133-11.934c-8.434 5.971-17.123 10.201-24.08 13.037 1.361 3.15 2.094 6.533 2.188 10.107.367 14.146-9.598 29.975-10.021 30.643-.761 1.193-2.054 1.851-3.38 1.851zm-6.166-46.08c.311 0 .625.037.936.111 1.48.355 2.631 1.521 2.967 3.008.188.83.143 1.857-.197 2.637-2.852 6.551-4.293 12.506-4.172 17.221.164 6.285 3.074 10.559 5.479 13.033 2.666-5.092 6.764-14.262 6.559-22.215-.098-3.73-1.174-7.158-3.195-10.184-.682-1.02-.857-2.295-.477-3.461.379-1.166 1.273-2.094 2.424-2.518 7.695-2.824 19.057-7.879 29.482-15.912.842-.648 1.918-.926 2.963-.799 1.053.139 2.01.691 2.654 1.535l6.67 8.717c1.031-4.988 1.865-12.148.822-20.207-.145-1.119.189-2.248.922-3.107 12.92-15.162 16.027-42.523 14.334-60.361l-5.473 2.756c-1.336.674-2.941.541-4.152-.338-1.213-.883-1.83-2.369-1.6-3.85l.916-5.881c-15.316 5.688-36.648 19.033-45.377 34.52-.58 1.029-1.586 1.748-2.746 1.967-6.082 1.141-13.037 4.98-17.975 8.133l10.287 3.23c2.055.645 3.23 2.799 2.66 4.875-4.027 14.678-3.604 29.434-2.537 39.225.135 1.248-.32 2.484-1.234 3.346-.912.861-2.18 1.242-3.41 1.031-3.912-.66-7.736-.131-11.385 1.582-7.229 3.391-13.582 11.152-16.932 15.812 3.285 1.039 8.412 1.736 14.113-.939 4.295-2.014 8.998-5.998 13.6-11.525.769-.927 1.902-1.442 3.074-1.442z" fill="#2e58ff"/></g><circle cx="121" cy="105" r="4" fill="#2e58ff"/><g><circle cx="130" cy="213" r="22" fill="#cceaff"/><path d="m130 239.092c-14.336 0-26-11.664-26-26s11.664-26 26-26 26 11.664 26 26-11.664 26-26 26zm0-44c-9.926 0-18 8.074-18 18s8.074 18 18 18 18-8.074 18-18-8.074-18-18-18z" fill="#2e58ff"/></g><path d="m125.758 212.85c-1.023 0-2.047-.391-2.828-1.172l-2.828-2.828c-1.562-1.562-1.562-4.094 0-5.656s4.094-1.562 5.656 0l2.828 2.828c1.562 1.562 1.562 4.094 0 5.656-.781.781-1.805 1.172-2.828 1.172z" fill="#2e58ff"/><path d="m137.07 224.162c-1.023 0-2.047-.391-2.828-1.172l-2.828-2.828c-1.562-1.562-1.562-4.094 0-5.656s4.094-1.562 5.656 0l2.828 2.828c1.562 1.562 1.562 4.094 0 5.656-.781.782-1.804 1.172-2.828 1.172z" fill="#2e58ff"/><path d="m134.242 212.85c-1.023 0-2.047-.391-2.828-1.172-1.562-1.562-1.562-4.094 0-5.656l2.828-2.828c1.562-1.562 4.094-1.562 5.656 0s1.562 4.094 0 5.656l-2.828 2.828c-.781.781-1.804 1.172-2.828 1.172z" fill="#2e58ff"/><path d="m122.93 224.162c-1.023 0-2.047-.391-2.828-1.172-1.562-1.562-1.562-4.094 0-5.656l2.828-2.828c1.562-1.562 4.094-1.562 5.656 0s1.562 4.094 0 5.656l-2.828 2.828c-.781.782-1.805 1.172-2.828 1.172z" fill="#2e58ff"/><g><circle cx="80" cy="81" r="22" fill="#cceaff"/><path d="m80 107.092c-14.336 0-26-11.664-26-26s11.664-26 26-26 26 11.664 26 26-11.664 26-26 26zm0-44c-9.926 0-18 8.074-18 18s8.074 18 18 18 18-8.074 18-18-8.074-18-18-18z" fill="#2e58ff"/></g><g fill="#2e58ff"><path d="m75.758 80.85c-1.023 0-2.047-.391-2.828-1.172l-2.828-2.828c-1.562-1.562-1.562-4.094 0-5.656s4.094-1.562 5.656 0l2.828 2.828c1.562 1.562 1.562 4.094 0 5.656-.781.781-1.805 1.172-2.828 1.172z"/><path d="m87.07 92.162c-1.023 0-2.047-.391-2.828-1.172l-2.828-2.828c-1.562-1.562-1.562-4.094 0-5.656s4.094-1.562 5.656 0l2.828 2.828c1.562 1.562 1.562 4.094 0 5.656-.781.782-1.804 1.172-2.828 1.172z"/><path d="m84.242 80.85c-1.023 0-2.047-.391-2.828-1.172-1.562-1.562-1.562-4.094 0-5.656l2.828-2.828c1.562-1.562 4.094-1.562 5.656 0s1.562 4.094 0 5.656l-2.828 2.828c-.781.781-1.804 1.172-2.828 1.172z"/><path d="m72.93 92.162c-1.023 0-2.047-.391-2.828-1.172-1.562-1.562-1.562-4.094 0-5.656l2.828-2.828c1.562-1.562 4.094-1.562 5.656 0s1.562 4.094 0 5.656l-2.828 2.828c-.781.782-1.805 1.172-2.828 1.172z"/><path d="m200 169.092c-1.023 0-2.047-.391-2.828-1.172-1.562-1.562-1.562-4.094 0-5.656l14-14c1.562-1.562 4.094-1.562 5.656 0s1.562 4.094 0 5.656l-14 14c-.781.781-1.805 1.172-2.828 1.172z"/><path d="m198 155.092c-1.023 0-2.047-.391-2.828-1.172-1.562-1.562-1.562-4.094 0-5.656l4-4c1.562-1.562 4.094-1.562 5.656 0s1.562 4.094 0 5.656l-4 4c-.781.781-1.805 1.172-2.828 1.172z"/><path d="m250 63.092c-1.023 0-2.047-.391-2.828-1.172l-12-12c-1.562-1.562-1.562-4.094 0-5.656s4.094-1.562 5.656 0l12 12c1.562 1.562 1.562 4.094 0 5.656-.781.781-1.805 1.172-2.828 1.172z"/><path d="m238 63.092c-1.023 0-2.047-.391-2.828-1.172-1.562-1.562-1.562-4.094 0-5.656l12-12c1.562-1.562 4.094-1.562 5.656 0s1.562 4.094 0 5.656l-12 12c-.781.781-1.805 1.172-2.828 1.172z"/><circle cx="206" cy="37" r="4"/></g></g><g transform="matrix(0.28977775940145367 0.07764571661611967 -0.07764571661611967 0.28977775940145367 -31.81781341281515 -55.128661097931015)" id="L1_7"><g fill="#2e58ff"><path d="m260 88c-1.023 0-2.047-.391-2.828-1.172l-12-12c-1.562-1.562-1.562-4.094 0-5.656s4.094-1.562 5.656 0l12 12c1.562 1.562 1.562 4.094 0 5.656-.781.781-1.805 1.172-2.828 1.172z"/><path d="m248 88c-1.023 0-2.047-.391-2.828-1.172-1.562-1.562-1.562-4.094 0-5.656l12-12c1.562-1.562 4.094-1.562 5.656 0s1.562 4.094 0 5.656l-12 12c-.781.781-1.805 1.172-2.828 1.172z"/><circle cx="216" cy="52" r="4"/></g><g><path d="m209.08 94.056 19.353-4.374c1.067 4.719-1.395 9.411-5.643 11.321l.089.393c4.656-.102 8.897 3.075 9.963 7.793 1.067 4.719-1.395 9.411-5.643 11.321l.089.393c4.656-.102 8.897 3.075 9.963 7.793 1.067 4.719-1.395 9.411-5.643 11.321l.089.393c4.656-.102 8.897 3.075 9.963 7.793 1.067 4.719-1.395 9.411-5.643 11.321l.089.393c4.656-.102 8.897 3.075 9.963 7.793 1.067 4.719-1.395 9.411-5.643 11.321l.089.393c4.656-.102 8.897 3.075 9.963 7.793 1.067 4.719-1.395 9.411-5.643 11.321l.089.393c4.656-.102 8.897 3.075 9.963 7.793l-96.445 21.8c-1.067-4.719 1.395-9.411 5.643-11.321l-.089-.393c-4.656.102-8.897-3.075-9.963-7.793-1.067-4.719 1.395-9.411 5.643-11.321l-.089-.393c-4.656.102-8.897-3.075-9.963-7.793-1.067-4.719 1.395-9.411 5.643-11.321l-.089-.393c-4.656.102-8.897-3.075-9.963-7.793-1.067-4.719 1.395-9.411 5.643-11.321l-.089-.393c-4.656.102-8.897-3.075-9.963-7.793-1.067-4.719 1.395-9.411 5.643-11.321l-.089-.393c-4.656.102-8.897-3.075-9.963-7.793-1.067-4.719 1.395-9.411 5.643-11.321l-.089-.393c-4.656.102-8.897-3.075-9.963-7.793l59.5-13.449" fill="#92ceff"/><path d="m158.445 232.529c-.75 0-1.492-.211-2.137-.617-.895-.566-1.531-1.467-1.766-2.502-.852-3.766-.078-7.602 1.906-10.684-3.117-1.928-5.465-5.057-6.316-8.824s-.078-7.602 1.91-10.684c-3.121-1.928-5.469-5.057-6.32-8.824s-.078-7.602 1.91-10.684c-3.121-1.928-5.469-5.059-6.32-8.826-.852-3.766-.078-7.6 1.91-10.682-3.121-1.93-5.465-5.059-6.316-8.826-.852-3.766-.078-7.6 1.906-10.682-3.117-1.928-5.465-5.059-6.316-8.826-.852-3.766-.078-7.6 1.906-10.682-3.117-1.928-5.465-5.059-6.316-8.826-.484-2.154.867-4.295 3.02-4.783l59.5-13.449c2.145-.484 4.297.863 4.785 3.02.484 2.156-.867 4.297-3.02 4.785l-54.105 12.229c1.027.73 2.238 1.172 3.602 1.113 1.773.037 3.586 1.277 3.992 3.145l.086.393c.406 1.848-.539 3.727-2.266 4.504-2.586 1.162-4.008 4.018-3.379 6.791.629 2.771 3.312 4.781 5.973 4.676 1.844-.002 3.562 1.26 3.984 3.107l.09.393c.426 1.857-.52 3.758-2.258 4.541-2.586 1.162-4.008 4.018-3.379 6.791.629 2.771 3.262 4.889 5.973 4.676 2.023.072 3.562 1.262 3.984 3.107l.09.393c.426 1.857-.52 3.758-2.258 4.541-2.586 1.164-4.012 4.02-3.383 6.791s3.25 4.855 5.977 4.676c1.934.01 3.559 1.26 3.984 3.107l.09.393c.426 1.859-.52 3.76-2.258 4.541-2.586 1.162-4.012 4.02-3.383 6.793.625 2.771 3.203 4.859 5.977 4.674 1.848.084 3.562 1.26 3.984 3.107l.09.393c.426 1.859-.52 3.76-2.258 4.541-2.586 1.162-4.012 4.02-3.383 6.793.625 2.771 3.16 4.863 5.977 4.674 2.012.061 3.586 1.277 3.992 3.145l.086.393c.406 1.848-.539 3.727-2.266 4.504-1.207.543-2.16 1.453-2.77 2.553l85.656-19.361c-1.023-.73-2.367-1.107-3.598-1.113-.031.002-.062.002-.09.002-1.863 0-3.484-1.289-3.898-3.111l-.09-.395c-.426-1.857.52-3.756 2.258-4.537 2.586-1.162 4.012-4.018 3.383-6.791-.617-2.729-3.059-4.676-5.84-4.676-.078.002-.156.006-.223.002-1.879 0-3.508-1.307-3.91-3.148l-.086-.395c-.402-1.848.547-3.725 2.27-4.5 2.586-1.162 4.008-4.018 3.379-6.791-.629-2.775-3.273-4.803-5.969-4.674-.031 0-.062 0-.09 0-1.863 0-3.484-1.289-3.898-3.111l-.09-.395c-.426-1.857.52-3.756 2.258-4.537 2.586-1.162 4.008-4.018 3.379-6.791-.625-2.773-3.332-4.711-5.969-4.676-.031.002-.062.002-.09.002-1.863 0-3.484-1.289-3.898-3.111l-.09-.395c-.426-1.857.52-3.756 2.258-4.537 2.586-1.164 4.012-4.02 3.383-6.791-.617-2.727-3.062-4.676-5.84-4.676-.078.004-.152.002-.223.002-1.863 0-3.484-1.289-3.898-3.111l-.09-.395c-.426-1.857.52-3.756 2.258-4.537 2.586-1.164 4.012-4.02 3.383-6.791-.617-2.729-3.059-4.676-5.84-4.676-.078.002-.156.002-.223.002-1.863 0-3.484-1.289-3.898-3.111l-.09-.395c-.426-1.857.52-3.756 2.258-4.537 1.207-.543 2.16-1.453 2.77-2.551l-13.953 3.154c-2.152.482-4.297-.863-4.785-3.021-.484-2.154.867-4.295 3.02-4.783l19.352-4.373c2.148-.477 4.297.865 4.785 3.021.852 3.766.078 7.6-1.91 10.682 3.121 1.928 5.469 5.057 6.32 8.826.852 3.766.078 7.6-1.91 10.682 3.117 1.928 5.465 5.057 6.32 8.822.852 3.768.078 7.604-1.91 10.686 3.117 1.928 5.465 5.059 6.316 8.826.852 3.766.078 7.6-1.906 10.682 3.117 1.928 5.465 5.057 6.316 8.826.852 3.766.078 7.6-1.906 10.682 3.117 1.928 5.465 5.059 6.316 8.826.852 3.766.078 7.6-1.91 10.682 3.121 1.928 5.469 5.057 6.32 8.826.484 2.154-.867 4.295-3.02 4.783l-96.445 21.801c-.293.061-.59.094-.883.094z" fill="#2e58ff"/></g><g><path d="m64 256h-16.079c-4.375 0-7.921-3.546-7.921-7.921v-194.079l24-2z" fill="#92ceff"/><path d="m64 260h-16.078c-6.574 0-11.922-5.348-11.922-11.92v-194.08c0-2.08 1.594-3.812 3.668-3.986l24-2c1.109-.086 2.223.287 3.039 1.043.824.757 1.293 1.824 1.293 2.943v204c0 2.209-1.789 4-4 4zm-20-202.32v190.4c0 2.162 1.758 3.92 3.922 3.92h12.078v-195.652z" fill="#2e58ff"/></g><g><path d="m120 247.105c0-4.838 3.436-8.872 8-9.798v-.403c-4.564-.927-8-4.96-8-9.798s3.436-8.872 8-9.798v-.403c-4.564-.927-8-4.96-8-9.798s3.436-8.872 8-9.798v-.403c-4.564-.927-8-4.96-8-9.798s3.436-8.872 8-9.798v-.403c-4.564-.927-8-4.96-8-9.798s3.436-8.872 8-9.798v-.403c-4.564-.927-8-4.96-8-9.798s3.436-8.872 8-9.798v-.403c-4.564-.927-8-4.96-8-9.798h98.878c0 4.838-3.436 8.872-8 9.798v.403c4.564.927 8 4.96 8 9.798s-3.436 8.872-8 9.798v.403c4.564.927 8 4.96 8 9.798s-3.436 8.872-8 9.798v.403c4.564.927 8 4.96 8 9.798s-3.436 8.872-8 9.798v.403c4.564.927 8 4.96 8 9.798s-3.436 8.872-8 9.798v.403c4.564.927 8 4.96 8 9.798s-3.436 8.872-8 9.798v.403c4.564.927 8 4.96 8 9.798z" fill="#92ceff"/><path d="m218.879 251.105h-98.879c-2.211 0-4-1.791-4-4 0-3.863 1.598-7.432 4.215-10-2.617-2.568-4.215-6.139-4.215-10 0-3.863 1.598-7.432 4.215-10-2.617-2.568-4.215-6.139-4.215-10 0-3.863 1.598-7.432 4.215-10-2.617-2.568-4.215-6.139-4.215-10 0-3.863 1.598-7.432 4.215-10-2.617-2.568-4.215-6.139-4.215-10 0-3.863 1.598-7.432 4.215-10-2.617-2.568-4.215-6.139-4.215-10 0-3.863 1.598-7.432 4.215-10-2.617-2.568-4.215-6.139-4.215-10 0-2.209 1.789-4 4-4h98.879c2.211 0 4 1.791 4 4 0 3.861-1.598 7.432-4.215 10 2.617 2.568 4.215 6.137 4.215 10 0 3.861-1.598 7.432-4.215 10 2.617 2.568 4.215 6.137 4.215 10 0 3.861-1.598 7.432-4.215 10 2.617 2.568 4.215 6.137 4.215 10 0 3.861-1.598 7.432-4.215 10 2.617 2.568 4.215 6.137 4.215 10 0 3.861-1.598 7.432-4.215 10 2.617 2.568 4.215 6.137 4.215 10 0 3.861-1.598 7.432-4.215 10 2.617 2.568 4.215 6.137 4.215 10 0 2.209-1.789 4-4 4zm-93.348-8h87.816c-.836-.938-1.969-1.615-3.266-1.879-1.863-.379-3.203-2.018-3.203-3.92v-.404c0-1.902 1.34-3.541 3.203-3.92 2.781-.564 4.797-3.035 4.797-5.877s-2.016-5.314-4.797-5.879c-1.863-.379-3.203-2.018-3.203-3.92v-.404c0-1.902 1.34-3.541 3.203-3.92 2.781-.564 4.797-3.035 4.797-5.877s-2.016-5.314-4.797-5.879c-1.863-.379-3.203-2.018-3.203-3.92v-.404c0-1.902 1.34-3.541 3.203-3.92 2.781-.564 4.797-3.035 4.797-5.877s-2.016-5.314-4.797-5.879c-1.863-.379-3.203-2.018-3.203-3.92v-.404c0-1.902 1.34-3.541 3.203-3.92 2.781-.564 4.797-3.035 4.797-5.877s-2.016-5.314-4.797-5.879c-1.863-.379-3.203-2.018-3.203-3.92v-.404c0-1.902 1.34-3.541 3.203-3.92 2.781-.564 4.797-3.035 4.797-5.877s-2.016-5.314-4.797-5.879c-1.863-.379-3.203-2.018-3.203-3.92v-.404c0-1.902 1.34-3.541 3.203-3.92 1.297-.264 2.426-.941 3.266-1.877h-87.816c.84.936 1.969 1.613 3.266 1.877 1.863.379 3.203 2.018 3.203 3.92v.404c0 1.902-1.34 3.541-3.203 3.92-2.781.564-4.797 3.037-4.797 5.879s2.016 5.312 4.797 5.877c1.863.379 3.203 2.018 3.203 3.92v.404c0 1.902-1.34 3.541-3.203 3.92-2.781.564-4.797 3.037-4.797 5.879s2.016 5.312 4.797 5.877c1.863.379 3.203 2.018 3.203 3.92v.404c0 1.902-1.34 3.541-3.203 3.92-2.781.564-4.797 3.037-4.797 5.879s2.016 5.312 4.797 5.877c1.863.379 3.203 2.018 3.203 3.92v.404c0 1.902-1.34 3.541-3.203 3.92-2.781.564-4.797 3.037-4.797 5.879s2.016 5.312 4.797 5.877c1.863.379 3.203 2.018 3.203 3.92v.404c0 1.902-1.34 3.541-3.203 3.92-2.781.564-4.797 3.037-4.797 5.879s2.016 5.312 4.797 5.877c1.863.379 3.203 2.018 3.203 3.92v.404c0 1.902-1.34 3.541-3.203 3.92-1.297.264-2.43.942-3.266 1.879z" fill="#2e58ff"/></g><g><path d="m60 64h136v192h-136z" fill="#cceaff"/><path d="m196 260h-136c-2.211 0-4-1.791-4-4v-192c0-2.209 1.789-4 4-4h136c2.211 0 4 1.791 4 4v192c0 2.209-1.789 4-4 4zm-132-8h128v-184h-128z" fill="#2e58ff"/></g><g><path d="m96 156h64v64h-64z" fill="#cceaff"/><path d="m160 224h-64c-2.211 0-4-1.791-4-4v-64c0-2.209 1.789-4 4-4h64c2.211 0 4 1.791 4 4v64c0 2.209-1.789 4-4 4zm-60-8h56v-56h-56z" fill="#2e58ff"/></g><g><circle cx="128" cy="188" r="20" fill="#ffffff"/><path d="m128 212c-13.234 0-24-10.766-24-24s10.766-24 24-24 24 10.766 24 24-10.766 24-24 24zm0-40c-8.824 0-16 7.178-16 16s7.176 16 16 16 16-7.178 16-16-7.176-16-16-16z" fill="#2e58ff"/></g><g><path d="m144 136h-32l-16 20h64z" fill="#92ceff"/><path d="m160 160h-64c-1.539 0-2.938-.881-3.605-2.268-.664-1.385-.48-3.031.48-4.23l16-20c.762-.949 1.91-1.502 3.125-1.502h32c1.215 0 2.363.553 3.125 1.502l16 20c.961 1.199 1.145 2.846.48 4.23-.667 1.387-2.066 2.268-3.605 2.268zm-55.676-8h47.352l-9.598-12h-28.156z" fill="#2e58ff"/></g><g><path d="m112 108h32v28h-32z" fill="#cceaff"/><path d="m144 140h-32c-2.211 0-4-1.791-4-4v-28c0-2.209 1.789-4 4-4h32c2.211 0 4 1.791 4 4v28c0 2.209-1.789 4-4 4zm-28-8h24v-20h-24z" fill="#2e58ff"/></g><g><path d="m104 240v-20h48v20" fill="#cceaff"/><path d="m152 244c-2.211 0-4-1.791-4-4v-16h-40v16c0 2.209-1.789 4-4 4s-4-1.791-4-4v-20c0-2.209 1.789-4 4-4h48c2.211 0 4 1.791 4 4v20c0 2.209-1.789 4-4 4z" fill="#2e58ff"/></g><g><path d="m144 97.333-16-21.333-16 21.333v10.667h32z" fill="#92ceff"/><path d="m144 112h-32c-2.211 0-4-1.791-4-4v-10.666c0-.865.281-1.707.801-2.4l16-21.334c1.508-2.012 4.891-2.012 6.398 0l16 21.334c.52.693.801 1.535.801 2.4v10.666c0 2.209-1.789 4-4 4zm-28-8h24v-5.332l-12-16.002-12 16.002z" fill="#2e58ff"/></g><path d="m132.699 197.049c-.973 0-1.949-.352-2.719-1.064l-4.699-4.35c-.816-.758-1.281-1.82-1.281-2.936v-8.699c0-2.209 1.789-4 4-4s4 1.791 4 4v6.951l3.418 3.162c1.621 1.5 1.719 4.031.215 5.652-.785.852-1.86 1.284-2.934 1.284z" fill="#2e58ff"/><g><path d="m176 64h-126c-5.523 0-10-4.477-10-10 0-5.523 4.477-10 10-10h126z" fill="#92ceff"/><path d="m176 68h-126c-7.719 0-14-6.281-14-14s6.281-14 14-14h126c2.211 0 4 1.791 4 4v20c0 2.209-1.789 4-4 4zm-126-20c-3.309 0-6 2.691-6 6s2.691 6 6 6h122v-12z" fill="#2e58ff"/></g><path d="m128 128c-2.211 0-4-1.791-4-4v-4c0-2.209 1.789-4 4-4s4 1.791 4 4v4c0 2.209-1.789 4-4 4z" fill="#2e58ff"/><g><path d="m192 64h-126c-5.523 0-10-4.477-10-10 0-5.523 4.477-10 10-10h126z" fill="#ffffff"/><path d="m192 68h-126c-7.719 0-14-6.281-14-14s6.281-14 14-14h126c2.211 0 4 1.791 4 4v20c0 2.209-1.789 4-4 4zm-126-20c-3.309 0-6 2.691-6 6s2.691 6 6 6h122v-12z" fill="#2e58ff"/></g></g><g transform="matrix(0.30000001192092896 0 0 0.30000001192092896 217.5 217.5)" id="L1_8"><path d="m95.585 82.921c-1.023 0-2.047-.391-2.828-1.172l-11.313-11.312c-1.562-1.562-1.562-4.094 0-5.656s4.094-1.562 5.656 0l11.312 11.312c1.562 1.562 1.562 4.094 0 5.656-.781.781-1.804 1.172-2.827 1.172z" fill="#2e58ff"/><path d="m84.272 82.921c-1.023 0-2.047-.391-2.828-1.172-1.562-1.562-1.562-4.094 0-5.656l11.312-11.313c1.562-1.562 4.094-1.562 5.656 0s1.562 4.094 0 5.656l-11.312 11.313c-.781.781-1.805 1.172-2.828 1.172z" fill="#2e58ff"/><circle cx="115" cy="51" r="4" fill="#2e58ff"/><path d="m149.928 97.265c-1.023 0-2.047-.391-2.828-1.172-1.562-1.562-1.562-4.094 0-5.656l8-8c1.562-1.562 4.094-1.562 5.656 0s1.562 4.094 0 5.656l-8 8c-.781.781-1.804 1.172-2.828 1.172z" fill="#2e58ff"/><path d="m257.928 97.265c-1.023 0-2.047-.391-2.828-1.172l-8-8c-1.562-1.562-1.562-4.094 0-5.656s4.094-1.562 5.656 0l8 8c1.562 1.562 1.562 4.094 0 5.656-.781.781-1.804 1.172-2.828 1.172z" fill="#2e58ff"/><g><path d="m176.314 89.265h-11.373c-6.082 0-11.012-4.93-11.012-11.012v-5.965c0-10.506 8.517-19.023 19.023-19.023h18.541c3.555 0 6.437 2.882 6.437 6.437v7.949c-.002 11.937-9.679 21.614-21.616 21.614z" fill="#92ceff"/><path d="m176.315 93.265h-11.375c-8.277 0-15.012-6.734-15.012-15.012v-5.965c0-12.695 10.328-23.023 23.023-23.023h18.539c5.754 0 10.438 4.682 10.438 10.438v7.949c0 14.122-11.488 25.613-25.613 25.613zm-3.363-36c-8.285 0-15.023 6.74-15.023 15.023v5.965c0 3.867 3.145 7.012 7.012 7.012h11.375c9.711 0 17.613-7.9 17.613-17.613v-7.949c0-1.344-1.094-2.438-2.438-2.438z" fill="#2e58ff"/></g><g><path d="m231.542 89.265h11.373c6.082 0 11.012-4.93 11.012-11.012v-5.965c0-10.506-8.517-19.023-19.023-19.023h-18.541c-3.555 0-6.437 2.882-6.437 6.437v7.949c.002 11.937 9.679 21.614 21.616 21.614z" fill="#92ceff"/><path d="m242.917 93.265h-11.375c-14.125 0-25.613-11.49-25.613-25.613v-7.949c0-5.756 4.684-10.438 10.438-10.438h18.539c12.695 0 23.023 10.328 23.023 23.023v5.965c-.001 8.277-6.735 15.012-15.012 15.012zm-26.551-36c-1.344 0-2.438 1.094-2.438 2.438v7.949c0 9.713 7.902 17.613 17.613 17.613h11.375c3.867 0 7.012-3.145 7.012-7.012v-5.965c0-8.283-6.738-15.023-15.023-15.023z" fill="#2e58ff"/></g><path d="m221.928 57.265h-40c-2.211 0-4-1.791-4-4s1.789-4 4-4h40c2.211 0 4 1.791 4 4s-1.789 4-4 4z" fill="#2e58ff"/><g><path d="m256.793 178.48c-1.939-8.153-4.563-16.146-7.852-23.891h-95.4c-7.868 18.524-11.925 38.468-11.925 58.622v36.053h51.675l8.637-20 7.263 20h51.675v-36.053c0-6.71-.45-13.396-1.34-20.014" fill="#92ceff"/><path d="m260.866 253.265h-51.676c-1.684 0-3.184-1.053-3.762-2.635l-3.82-10.531-4.645 10.752c-.633 1.465-2.074 2.414-3.672 2.414h-51.676c-2.211 0-4-1.791-4-4v-36.053c0-20.805 4.121-41.055 12.242-60.188.629-1.477 2.078-2.436 3.684-2.436h95.398c1.605 0 3.055.959 3.684 2.438 3.363 7.92 6.074 16.174 8.059 24.527.512 2.15-.816 4.307-2.965 4.816-2.137.51-4.305-.812-4.816-2.965-1.68-7.068-3.91-14.057-6.633-20.816h-90.055c-7.031 17.416-10.598 35.779-10.598 54.623v32.053h45.047l7.594-17.586c.648-1.504 2.168-2.459 3.789-2.412 1.641.049 3.082 1.092 3.645 2.633l6.305 17.365h44.871v-32.053c0-6.496-.438-13.051-1.305-19.482-.293-2.189 1.242-4.203 3.43-4.498 2.246-.293 4.203 1.244 4.5 3.432.914 6.783 1.375 13.697 1.375 20.549v36.053c0 2.209-1.789 4-4 4z" fill="#2e58ff"/></g><g><path d="m152.866 141.265h96.75v16h-96.75z" fill="#ffffff"/><path d="m249.616 161.265h-96.75c-2.211 0-4-1.791-4-4v-16c0-2.209 1.789-4 4-4h96.75c2.211 0 4 1.791 4 4v16c0 2.209-1.789 4-4 4zm-92.75-8h88.75v-8h-88.75z" fill="#2e58ff"/></g><g fill="#2e58ff"><path d="m201.928 233.265c-2.211 0-4-1.791-4-4v-68c0-2.209 1.789-4 4-4s4 1.791 4 4v68c0 2.209-1.789 4-4 4z"/><path d="m189.928 193.265c-2.211 0-4-1.791-4-4v-28c0-2.209 1.789-4 4-4s4 1.791 4 4v28c0 2.209-1.789 4-4 4z"/><path d="m213.928 193.265c-2.211 0-4-1.791-4-4v-28c0-2.209 1.789-4 4-4s4 1.791 4 4v28c0 2.209-1.789 4-4 4z"/><circle cx="161" cy="173" r="4"/><circle cx="225" cy="189" r="4"/><circle cx="217" cy="221" r="4"/><circle cx="153" cy="205" r="4"/><circle cx="153" cy="229" r="4"/><circle cx="177" cy="185" r="4"/><circle cx="233" cy="173" r="4"/><circle cx="241" cy="201" r="4"/><circle cx="241" cy="233" r="4"/><circle cx="249" cy="217" r="4"/><circle cx="233" cy="217" r="4"/><circle cx="225" cy="233" r="4"/><circle cx="245" cy="185" r="4"/><circle cx="221" cy="205" r="4"/><circle cx="189" cy="209" r="4"/><circle cx="165" cy="237" r="4"/><circle cx="161" cy="189" r="4"/><circle cx="173" cy="205" r="4"/><circle cx="177" cy="225" r="4"/><circle cx="161" cy="217" r="4"/></g><g><path d="m58.53 185.265c-9.273 0-16.79-8.059-16.79-18v-18l-2.566-35.76c-.629-8.76 5.832-16.24 14.028-16.24h10.656c8.196 0 14.656 7.48 14.028 16.24l-2.566 35.76v18c0 9.941-7.517 18-16.79 18z" fill="#cceaff"/><path d="m58.53 189.265c-11.465 0-20.789-9.869-20.789-22v-18l-2.555-35.473c-.395-5.494 1.477-10.898 5.133-14.826 3.422-3.676 7.996-5.701 12.883-5.701h10.656c4.887 0 9.461 2.025 12.883 5.701 3.656 3.928 5.527 9.332 5.133 14.826l-2.566 35.76.012 17.713c-.001 12.131-9.325 22-20.79 22zm-5.328-88c-2.641 0-5.137 1.119-7.027 3.15-2.148 2.309-3.246 5.518-3.012 8.803l2.566 35.76.012 18.287c0 7.719 5.738 14 12.789 14s12.789-6.281 12.789-14v-18l2.578-36.047c.234-3.285-.863-6.494-3.012-8.803-1.891-2.031-4.387-3.15-7.027-3.15z" fill="#2e58ff"/></g><path d="m40.862 133.265v-8c7.203 0 13.066-5.861 13.066-13.066v-14.934h8v14.934c0 11.615-9.449 21.066-21.066 21.066z" fill="#2e58ff"/><path d="m74.995 133.265c-11.617 0-21.066-9.451-21.066-21.066v-14.934h8v14.934c0 7.205 5.863 13.066 13.066 13.066z" fill="#2e58ff"/><g><path d="m110.53 213.265c-9.273 0-16.79-8.059-16.79-18v-18l-2.566-35.76c-.629-8.76 5.832-16.24 14.028-16.24h10.656c8.196 0 14.656 7.48 14.028 16.24l-2.566 35.76v18c0 9.941-7.517 18-16.79 18z" fill="#cceaff"/><path d="m110.53 217.265c-11.465 0-20.789-9.869-20.789-22v-18l-2.555-35.473c-.395-5.494 1.477-10.898 5.133-14.826 3.422-3.676 7.996-5.701 12.883-5.701h10.656c4.887 0 9.461 2.025 12.883 5.701 3.656 3.928 5.527 9.332 5.133 14.826l-2.566 35.76.012 17.713c-.001 12.131-9.325 22-20.79 22zm-5.328-88c-2.641 0-5.137 1.119-7.027 3.15-2.148 2.309-3.246 5.518-3.012 8.803l2.566 35.76.012 18.287c0 7.719 5.738 14 12.789 14s12.789-6.281 12.789-14v-18l2.578-36.047c.234-3.285-.863-6.494-3.012-8.803-1.891-2.031-4.387-3.15-7.027-3.15z" fill="#2e58ff"/></g><path d="m92.862 161.265v-8c7.203 0 13.066-5.861 13.066-13.066v-14.934h8v14.934c0 11.615-9.449 21.066-21.066 21.066z" fill="#2e58ff"/><path d="m126.995 161.265c-11.617 0-21.066-9.451-21.066-21.066v-14.934h8v14.934c0 7.205 5.863 13.066 13.066 13.066z" fill="#2e58ff"/><path d="m187.928 129.265c-7.719 0-14-6.281-14-14s6.281-14 14-14 14 6.281 14 14-6.281 14-14 14zm0-20c-3.309 0-6 2.691-6 6s2.691 6 6 6 6-2.691 6-6-2.691-6-6-6z" fill="#2e58ff"/></g><g transform="matrix(0.1666666716337204 0 0 0.1666666716337204 62.5 237.5)" id="L1_9"><path d="m250 81.092c-1.023 0-2.047-.391-2.828-1.172l-12-12c-1.562-1.562-1.562-4.094 0-5.656s4.094-1.562 5.656 0l12 12c1.562 1.562 1.562 4.094 0 5.656-.781.781-1.805 1.172-2.828 1.172z" fill="#2e58ff"/><path d="m238 81.092c-1.023 0-2.047-.391-2.828-1.172-1.562-1.562-1.562-4.094 0-5.656l12-12c1.562-1.562 4.094-1.562 5.656 0s1.562 4.094 0 5.656l-12 12c-.781.781-1.805 1.172-2.828 1.172z" fill="#2e58ff"/><path d="m118 65.092c-6.617 0-12-5.383-12-12s5.383-12 12-12 12 5.383 12 12-5.383 12-12 12zm0-16c-2.205 0-4 1.795-4 4s1.795 4 4 4 4-1.795 4-4-1.795-4-4-4z" fill="#2e58ff"/><circle cx="186" cy="43" r="4" fill="#2e58ff"/><g><path d="m230 213.092h-174l-18-40v-16h220v11.852c0 5.281-1.76 10.411-5.002 14.579z" fill="#ffffff"/><path d="m230 217.092h-174c-1.574 0-3.002-.924-3.648-2.359l-18-40c-.232-.516-.352-1.074-.352-1.641v-16c0-2.209 1.791-4 4-4h220c2.209 0 4 1.791 4 4v11.852c0 6.141-2.076 12.191-5.844 17.035l-22.998 29.568c-.758.975-1.924 1.545-3.158 1.545zm-171.414-8h169.457l21.797-28.023c2.684-3.449 4.16-7.754 4.16-12.125v-7.852h-212v11.141z" fill="#2e58ff"/></g><g><path d="m178 169.092h-80c-6.627 0-12-5.373-12-12h112z" fill="#cceaff"/><path d="m178 173.092h-80c-8.822 0-16-7.178-16-16 0-2.209 1.791-4 4-4h112c1.799 0 3.375 1.199 3.855 2.932.479 1.732-.256 3.574-1.797 4.498l-20 12c-.622.373-1.333.57-2.058.57zm-86.926-12c1.385 2.389 3.971 4 6.926 4h78.893l6.666-4z" fill="#2e58ff"/></g><path d="m238 173.092h-8c-2.209 0-4-1.791-4-4s1.791-4 4-4h8c2.209 0 4 1.791 4 4s-1.791 4-4 4z" fill="#2e58ff"/><path d="m214 173.092h-8c-2.209 0-4-1.791-4-4s1.791-4 4-4h8c2.209 0 4 1.791 4 4s-1.791 4-4 4z" fill="#2e58ff"/><path d="m174 189.092c-2.209 0-4-1.791-4-4v-4c0-2.209 1.791-4 4-4s4 1.791 4 4v4c0 2.209-1.791 4-4 4z" fill="#2e58ff"/><path d="m162 189.092c-2.209 0-4-1.791-4-4v-4c0-2.209 1.791-4 4-4s4 1.791 4 4v4c0 2.209-1.791 4-4 4z" fill="#2e58ff"/><path d="m150 189.092c-2.209 0-4-1.791-4-4v-4c0-2.209 1.791-4 4-4s4 1.791 4 4v4c0 2.209-1.791 4-4 4z" fill="#2e58ff"/><path d="m138 189.092c-2.209 0-4-1.791-4-4v-4c0-2.209 1.791-4 4-4s4 1.791 4 4v4c0 2.209-1.791 4-4 4z" fill="#2e58ff"/><path d="m126 189.092c-2.209 0-4-1.791-4-4v-4c0-2.209 1.791-4 4-4s4 1.791 4 4v4c0 2.209-1.791 4-4 4z" fill="#2e58ff"/><path d="m114 189.092c-2.209 0-4-1.791-4-4v-4c0-2.209 1.791-4 4-4s4 1.791 4 4v4c0 2.209-1.791 4-4 4z" fill="#2e58ff"/><path d="m30 213.092h240v44h-240z" fill="#92ceff"/><path d="m102 189.092c-2.209 0-4-1.791-4-4v-4c0-2.209 1.791-4 4-4s4 1.791 4 4v4c0 2.209-1.791 4-4 4z" fill="#2e58ff"/><path d="m90 189.092c-2.209 0-4-1.791-4-4v-4c0-2.209 1.791-4 4-4s4 1.791 4 4v4c0 2.209-1.791 4-4 4z" fill="#2e58ff"/><path d="m270 217.092h-240c-2.209 0-4-1.791-4-4s1.791-4 4-4h240c2.209 0 4 1.791 4 4s-1.791 4-4 4z" fill="#2e58ff"/><g><path d="m54 133.092h164l12 24h-176z" fill="#cceaff"/><path d="m230 161.092h-176c-2.209 0-4-1.791-4-4v-24c0-2.209 1.791-4 4-4h164c1.516 0 2.9.855 3.578 2.211l12 24c.619 1.24.553 2.713-.176 3.893-.728 1.177-2.015 1.896-3.402 1.896zm-172-8h165.527l-8-16h-157.527z" fill="#2e58ff"/></g><g><path d="m70 109.092h123.226l12.774 24h-136z" fill="#ffffff"/><path d="m206 137.092h-136c-2.209 0-4-1.791-4-4v-24c0-2.209 1.791-4 4-4h123.227c1.479 0 2.836.816 3.531 2.121l12.773 24c.66 1.24.621 2.734-.102 3.938-.724 1.204-2.025 1.941-3.429 1.941zm-132-8h125.34l-8.516-16h-116.824z" fill="#2e58ff"/></g><path d="m222 149.092h-16c-2.209 0-4-1.791-4-4s1.791-4 4-4h16c2.209 0 4 1.791 4 4s-1.791 4-4 4z" fill="#2e58ff"/><g><path d="m150 97.092h32v12h-32z" fill="#ffffff"/><path d="m182 113.092h-32c-2.209 0-4-1.791-4-4v-12c0-2.209 1.791-4 4-4h32c2.209 0 4 1.791 4 4v12c0 2.209-1.791 4-4 4zm-28-8h24v-4h-24z" fill="#2e58ff"/></g><g><path d="m110 93.092h-16v16h32z" fill="#cceaff"/><path d="m126 113.092h-32c-2.209 0-4-1.791-4-4v-16c0-2.209 1.791-4 4-4h16c1.061 0 2.078.422 2.828 1.172l16 16c1.145 1.145 1.486 2.863.867 4.359-.619 1.494-2.078 2.469-3.695 2.469zm-28-8h18.344l-8-8h-10.344z" fill="#2e58ff"/></g><g fill="#2e58ff"><path d="m166 101.092c-2.209 0-4-1.791-4-4v-16c0-2.209 1.791-4 4-4s4 1.791 4 4v16c0 2.209-1.791 4-4 4z"/><path d="m194 149.092h-8c-2.209 0-4-1.791-4-4s1.791-4 4-4h8c2.209 0 4 1.791 4 4s-1.791 4-4 4z"/><circle cx="174" cy="145" r="4"/><circle cx="162" cy="145" r="4"/><circle cx="150" cy="145" r="4"/><circle cx="138" cy="145" r="4"/><circle cx="126" cy="145" r="4"/><circle cx="114" cy="145" r="4"/><circle cx="102" cy="145" r="4"/><circle cx="90" cy="145" r="4"/><circle cx="78" cy="145" r="4"/><circle cx="66" cy="145" r="4"/><path d="m198 125.092h-8c-2.209 0-4-1.791-4-4s1.791-4 4-4h8c2.209 0 4 1.791 4 4s-1.791 4-4 4z"/><circle cx="178" cy="121" r="4"/><circle cx="166" cy="121" r="4"/><circle cx="154" cy="121" r="4"/><circle cx="142" cy="121" r="4"/><circle cx="130" cy="121" r="4"/><circle cx="118" cy="121" r="4"/><circle cx="106" cy="121" r="4"/><circle cx="94" cy="121" r="4"/><circle cx="82" cy="121" r="4"/><path d="m230 137.092h-28c-2.209 0-4-1.791-4-4s1.791-4 4-4h28c2.209 0 4 1.791 4 4s-1.791 4-4 4z"/><path d="m206 113.092h-28c-2.209 0-4-1.791-4-4s1.791-4 4-4h28c2.209 0 4 1.791 4 4s-1.791 4-4 4z"/><path d="m102 237.092h-52c-2.209 0-4-1.791-4-4s1.791-4 4-4h52c2.209 0 4 1.791 4 4s-1.791 4-4 4z"/><path d="m218 261.092h-112c-2.209 0-4-1.791-4-4s1.791-4 4-4h112c2.209 0 4 1.791 4 4s-1.791 4-4 4z"/><path d="m250 237.092h-52c-2.209 0-4-1.791-4-4s1.791-4 4-4h52c2.209 0 4 1.791 4 4s-1.791 4-4 4z"/><path d="m118 237.092h-4c-2.209 0-4-1.791-4-4s1.791-4 4-4h4c2.209 0 4 1.791 4 4s-1.791 4-4 4z"/><path d="m146 237.092h-16c-2.209 0-4-1.791-4-4s1.791-4 4-4h16c2.209 0 4 1.791 4 4s-1.791 4-4 4z"/></g></g></defs><g fi:class="KUsePattern"><pattern id="pattern_L1_0" width="350" height="350" patternUnits="userSpaceOnUse"><use xlink:href="#L1_0" x="-350" y="-350"/><use xlink:href="#L1_0" x="0" y="-350"/><use xlink:href="#L1_0" x="350" y="-350"/><use xlink:href="#L1_0" x="-350" y="0"/><use xlink:href="#L1_0" x="0" y="0"/><use xlink:href="#L1_0" x="350" y="0"/><use xlink:href="#L1_0" x="-350" y="350"/><use xlink:href="#L1_0" x="0" y="350"/><use xlink:href="#L1_0" x="350" y="350"/></pattern><rect x="0" y="0" width="100%" height="100%" fill="url(#pattern_L1_0)"/></g><g fi:class="KUsePattern"><pattern id="pattern_L1_1" width="350" height="350" patternUnits="userSpaceOnUse"><use xlink:href="#L1_1" x="-350" y="-350"/><use xlink:href="#L1_1" x="0" y="-350"/><use xlink:href="#L1_1" x="350" y="-350"/><use xlink:href="#L1_1" x="-350" y="0"/><use xlink:href="#L1_1" x="0" y="0"/><use xlink:href="#L1_1" x="350" y="0"/><use xlink:href="#L1_1" x="-350" y="350"/><use xlink:href="#L1_1" x="0" y="350"/><use xlink:href="#L1_1" x="350" y="350"/></pattern><rect x="0" y="0" width="100%" height="100%" fill="url(#pattern_L1_1)"/></g><g fi:class="KUsePattern"><pattern id="pattern_L1_2" width="350" height="350" patternUnits="userSpaceOnUse"><use xlink:href="#L1_2" x="-350" y="-350"/><use xlink:href="#L1_2" x="0" y="-350"/><use xlink:href="#L1_2" x="350" y="-350"/><use xlink:href="#L1_2" x="-350" y="0"/><use xlink:href="#L1_2" x="0" y="0"/><use xlink:href="#L1_2" x="350" y="0"/><use xlink:href="#L1_2" x="-350" y="350"/><use xlink:href="#L1_2" x="0" y="350"/><use xlink:href="#L1_2" x="350" y="350"/></pattern><rect x="0" y="0" width="100%" height="100%" fill="url(#pattern_L1_2)"/></g><g fi:class="KUsePattern"><pattern id="pattern_L1_3" width="350" height="350" patternUnits="userSpaceOnUse"><use xlink:href="#L1_3" x="-350" y="-350"/><use xlink:href="#L1_3" x="0" y="-350"/><use xlink:href="#L1_3" x="350" y="-350"/><use xlink:href="#L1_3" x="-350" y="0"/><use xlink:href="#L1_3" x="0" y="0"/><use xlink:href="#L1_3" x="350" y="0"/><use xlink:href="#L1_3" x="-350" y="350"/><use xlink:href="#L1_3" x="0" y="350"/><use xlink:href="#L1_3" x="350" y="350"/></pattern><rect x="0" y="0" width="100%" height="100%" fill="url(#pattern_L1_3)"/></g><g fi:class="KUsePattern"><pattern id="pattern_L1_4" width="350" height="350" patternUnits="userSpaceOnUse"><use xlink:href="#L1_4" x="-350" y="-350"/><use xlink:href="#L1_4" x="0" y="-350"/><use xlink:href="#L1_4" x="350" y="-350"/><use xlink:href="#L1_4" x="-350" y="0"/><use xlink:href="#L1_4" x="0" y="0"/><use xlink:href="#L1_4" x="350" y="0"/><use xlink:href="#L1_4" x="-350" y="350"/><use xlink:href="#L1_4" x="0" y="350"/><use xlink:href="#L1_4" x="350" y="350"/></pattern><rect x="0" y="0" width="100%" height="100%" fill="url(#pattern_L1_4)"/></g><g fi:class="KUsePattern"><pattern id="pattern_L1_5" width="350" height="350" patternUnits="userSpaceOnUse"><use xlink:href="#L1_5" x="-350" y="-350"/><use xlink:href="#L1_5" x="0" y="-350"/><use xlink:href="#L1_5" x="350" y="-350"/><use xlink:href="#L1_5" x="-350" y="0"/><use xlink:href="#L1_5" x="0" y="0"/><use xlink:href="#L1_5" x="350" y="0"/><use xlink:href="#L1_5" x="-350" y="350"/><use xlink:href="#L1_5" x="0" y="350"/><use xlink:href="#L1_5" x="350" y="350"/></pattern><rect x="0" y="0" width="100%" height="100%" fill="url(#pattern_L1_5)"/></g><g fi:class="KUsePattern"><pattern id="pattern_L1_6" width="350" height="350" patternUnits="userSpaceOnUse"><use xlink:href="#L1_6" x="-350" y="-350"/><use xlink:href="#L1_6" x="0" y="-350"/><use xlink:href="#L1_6" x="350" y="-350"/><use xlink:href="#L1_6" x="-350" y="0"/><use xlink:href="#L1_6" x="0" y="0"/><use xlink:href="#L1_6" x="350" y="0"/><use xlink:href="#L1_6" x="-350" y="350"/><use xlink:href="#L1_6" x="0" y="350"/><use xlink:href="#L1_6" x="350" y="350"/></pattern><rect x="0" y="0" width="100%" height="100%" fill="url(#pattern_L1_6)"/></g><g fi:class="KUsePattern"><pattern id="pattern_L1_7" width="350" height="350" patternUnits="userSpaceOnUse"><use xlink:href="#L1_7" x="-350" y="-350"/><use xlink:href="#L1_7" x="0" y="-350"/><use xlink:href="#L1_7" x="350" y="-350"/><use xlink:href="#L1_7" x="-350" y="0"/><use xlink:href="#L1_7" x="0" y="0"/><use xlink:href="#L1_7" x="350" y="0"/><use xlink:href="#L1_7" x="-350" y="350"/><use xlink:href="#L1_7" x="0" y="350"/><use xlink:href="#L1_7" x="350" y="350"/></pattern><rect x="0" y="0" width="100%" height="100%" fill="url(#pattern_L1_7)"/></g><g fi:class="KUsePattern"><pattern id="pattern_L1_8" width="350" height="350" patternUnits="userSpaceOnUse"><use xlink:href="#L1_8" x="-350" y="-350"/><use xlink:href="#L1_8" x="0" y="-350"/><use xlink:href="#L1_8" x="350" y="-350"/><use xlink:href="#L1_8" x="-350" y="0"/><use xlink:href="#L1_8" x="0" y="0"/><use xlink:href="#L1_8" x="350" y="0"/><use xlink:href="#L1_8" x="-350" y="350"/><use xlink:href="#L1_8" x="0" y="350"/><use xlink:href="#L1_8" x="350" y="350"/></pattern><rect x="0" y="0" width="100%" height="100%" fill="url(#pattern_L1_8)"/></g><g fi:class="KUsePattern"><pattern id="pattern_L1_9" width="350" height="350" patternUnits="userSpaceOnUse"><use xlink:href="#L1_9" x="-350" y="-350"/><use xlink:href="#L1_9" x="0" y="-350"/><use xlink:href="#L1_9" x="350" y="-350"/><use xlink:href="#L1_9" x="-350" y="0"/><use xlink:href="#L1_9" x="0" y="0"/><use xlink:href="#L1_9" x="350" y="0"/><use xlink:href="#L1_9" x="-350" y="350"/><use xlink:href="#L1_9" x="0" y="350"/><use xlink:href="#L1_9" x="350" y="350"/></pattern><rect x="0" y="0" width="100%" height="100%" fill="url(#pattern_L1_9)"/></g></svg>